<?xml version="1.0" encoding="ISO8859-1"?>
<svg xmlns="http://www.w3.org/2000/svg" xmlns:xlink="http://www.w3.org/1999/xlink" width="288px" height="252px" viewBox="0 0 288 252" version="1.1" id="Fig:dens">
  <metadata xmlns:gridsvg="http://www.stat.auckland.ac.nz/~paul/R/gridSVG/">
    <gridsvg:generator name="gridSVG" version="1.7-1" time="2020-04-11 18:03:56"/>
    <gridsvg:argument name="name" value="arrayQualityMetrics report for rawData/dens.svg"/>
    <gridsvg:argument name="exportCoords" value="none"/>
    <gridsvg:argument name="exportMappings" value="none"/>
    <gridsvg:argument name="exportJS" value="none"/>
    <gridsvg:argument name="res" value="72"/>
    <gridsvg:argument name="prefix" value="Fig:dens"/>
    <gridsvg:argument name="addClasses" value="FALSE"/>
    <gridsvg:argument name="indent" value="TRUE"/>
    <gridsvg:argument name="htmlWrapper" value="FALSE"/>
    <gridsvg:argument name="usePaths" value="none"/>
    <gridsvg:argument name="uniqueNames" value="TRUE"/>
    <gridsvg:separator name="id.sep" value="."/>
    <gridsvg:separator name="gPath.sep" value="::"/>
    <gridsvg:separator name="vpPath.sep" value="::"/>
  </metadata>
  <g transform="translate(0, 252) scale(1, -1)">
    <g id="Fig:densgridSVG" fill="none" stroke="rgb(0,0,0)" stroke-dasharray="none" stroke-width="0.75" font-size="12" font-family="Helvetica, Arial, FreeSans, Liberation Sans, Nimbus Sans L, sans-serif" opacity="1" stroke-linecap="round" stroke-linejoin="round" stroke-miterlimit="10" stroke-opacity="1" fill-opacity="0" font-weight="normal" font-style="normal">
      <g id="Fig:densplot_01.background.1">
        <rect id="Fig:densplot_01.background.1.1" x="0" y="0" width="288" height="252" transform="" fill="none" stroke="none" stroke-opacity="0" fill-opacity="0"/>
      </g>
      <g id="Fig:densplot_01.toplevel.vp.1" font-size="12">
        <g id="Fig:densplot_01.ylab.vp.1">
          <g id="Fig:densplot_01.ylab.1">
            <g id="Fig:densplot_01.ylab.1.1" transform="translate(10.31, 138.09)" stroke-width="0.1">
              <g id="Fig:densplot_01.ylab.1.1.scale" transform="scale(1, -1)">
                <text x="0" y="0" id="Fig:densplot_01.ylab.1.1.text" transform="rotate(-90)" text-anchor="middle" opacity="1" stroke="rgb(0,0,0)" fill="rgb(0,0,0)" stroke-opacity="1" fill-opacity="1" font-size="12" font-weight="normal" font-style="normal">
                  <tspan id="Fig:densplot_01.ylab.1.1.tspan.1" dy="4.31" x="0">Density</tspan>
                </text>
              </g>
            </g>
          </g>
        </g>
        <g id="Fig:densplot_01.figure.vp.1"/>
        <defs>
          <clipPath id="Fig:densplot_01.panel.1.1.vp.1.clipPath">
            <rect x="44.8" y="42.19" width="231.2" height="191.81" fill="none" stroke="none"/>
          </clipPath>
        </defs>
        <g id="Fig:densplot_01.panel.1.1.vp.1" clip-path="url(#Fig:densplot_01.panel.1.1.vp.1.clipPath)"/>
        <g id="Fig:densplot_01.strip.1.1.off.vp.1"/>
        <g id="Fig:densplot_01.strip.left.1.1.off.vp.1">
          <g id="Fig:densplot_01.ticks.left.panel.1.1.1">
            <polyline id="Fig:densplot_01.ticks.left.panel.1.1.1.1" points="44.8,53.97 39.13,53.97" stroke="rgb(0,0,0)" opacity="1" stroke-dasharray="none" stroke-width="0.75" stroke-opacity="1" fill="none"/>
            <polyline id="Fig:densplot_01.ticks.left.panel.1.1.1.2" points="44.8,99.24 39.13,99.24" stroke="rgb(0,0,0)" opacity="1" stroke-dasharray="none" stroke-width="0.75" stroke-opacity="1" fill="none"/>
            <polyline id="Fig:densplot_01.ticks.left.panel.1.1.1.3" points="44.8,144.51 39.13,144.51" stroke="rgb(0,0,0)" opacity="1" stroke-dasharray="none" stroke-width="0.75" stroke-opacity="1" fill="none"/>
            <polyline id="Fig:densplot_01.ticks.left.panel.1.1.1.4" points="44.8,189.78 39.13,189.78" stroke="rgb(0,0,0)" opacity="1" stroke-dasharray="none" stroke-width="0.75" stroke-opacity="1" fill="none"/>
          </g>
          <g id="Fig:densplot_01.ticklabels.left.panel.1.1.1">
            <g id="Fig:densplot_01.ticklabels.left.panel.1.1.1.1" transform="translate(33.47, 53.97)" stroke-width="0.1">
              <g id="Fig:densplot_01.ticklabels.left.panel.1.1.1.1.scale" transform="scale(1, -1)">
                <text x="0" y="0" id="Fig:densplot_01.ticklabels.left.panel.1.1.1.1.text" transform="rotate(-90)" text-anchor="middle" stroke="rgb(0,0,0)" opacity="1" fill="rgb(0,0,0)" stroke-opacity="1" fill-opacity="1" font-size="9.6" font-weight="normal" font-style="normal">
                  <tspan id="Fig:densplot_01.ticklabels.left.panel.1.1.1.1.tspan.1" dy="0" x="0">0.000</tspan>
                </text>
              </g>
            </g>
            <g id="Fig:densplot_01.ticklabels.left.panel.1.1.1.2" transform="translate(33.47, 99.24)" stroke-width="0.1">
              <g id="Fig:densplot_01.ticklabels.left.panel.1.1.1.2.scale" transform="scale(1, -1)">
                <text x="0" y="0" id="Fig:densplot_01.ticklabels.left.panel.1.1.1.2.text" transform="rotate(-90)" text-anchor="middle" stroke="rgb(0,0,0)" opacity="1" fill="rgb(0,0,0)" stroke-opacity="1" fill-opacity="1" font-size="9.6" font-weight="normal" font-style="normal">
                  <tspan id="Fig:densplot_01.ticklabels.left.panel.1.1.1.2.tspan.1" dy="0" x="0">0.005</tspan>
                </text>
              </g>
            </g>
            <g id="Fig:densplot_01.ticklabels.left.panel.1.1.1.3" transform="translate(33.47, 144.51)" stroke-width="0.1">
              <g id="Fig:densplot_01.ticklabels.left.panel.1.1.1.3.scale" transform="scale(1, -1)">
                <text x="0" y="0" id="Fig:densplot_01.ticklabels.left.panel.1.1.1.3.text" transform="rotate(-90)" text-anchor="middle" stroke="rgb(0,0,0)" opacity="1" fill="rgb(0,0,0)" stroke-opacity="1" fill-opacity="1" font-size="9.6" font-weight="normal" font-style="normal">
                  <tspan id="Fig:densplot_01.ticklabels.left.panel.1.1.1.3.tspan.1" dy="0" x="0">0.010</tspan>
                </text>
              </g>
            </g>
            <g id="Fig:densplot_01.ticklabels.left.panel.1.1.1.4" transform="translate(33.47, 189.78)" stroke-width="0.1">
              <g id="Fig:densplot_01.ticklabels.left.panel.1.1.1.4.scale" transform="scale(1, -1)">
                <text x="0" y="0" id="Fig:densplot_01.ticklabels.left.panel.1.1.1.4.text" transform="rotate(-90)" text-anchor="middle" stroke="rgb(0,0,0)" opacity="1" fill="rgb(0,0,0)" stroke-opacity="1" fill-opacity="1" font-size="9.6" font-weight="normal" font-style="normal">
                  <tspan id="Fig:densplot_01.ticklabels.left.panel.1.1.1.4.tspan.1" dy="0" x="0">0.015</tspan>
                </text>
              </g>
            </g>
          </g>
        </g>
        <g id="Fig:densplot_01.panel.1.1.off.vp.1">
          <g id="Fig:densplot_01.ticks.bottom.panel.1.1.1">
            <polyline id="Fig:densplot_01.ticks.bottom.panel.1.1.1.1" points="60.46,42.19 60.46,36.52" stroke="rgb(0,0,0)" opacity="1" stroke-dasharray="none" stroke-width="0.75" stroke-opacity="1" fill="none"/>
            <polyline id="Fig:densplot_01.ticks.bottom.panel.1.1.1.2" points="118.5,42.19 118.5,36.52" stroke="rgb(0,0,0)" opacity="1" stroke-dasharray="none" stroke-width="0.75" stroke-opacity="1" fill="none"/>
            <polyline id="Fig:densplot_01.ticks.bottom.panel.1.1.1.3" points="176.54,42.19 176.54,36.52" stroke="rgb(0,0,0)" opacity="1" stroke-dasharray="none" stroke-width="0.75" stroke-opacity="1" fill="none"/>
            <polyline id="Fig:densplot_01.ticks.bottom.panel.1.1.1.4" points="234.58,42.19 234.58,36.52" stroke="rgb(0,0,0)" opacity="1" stroke-dasharray="none" stroke-width="0.75" stroke-opacity="1" fill="none"/>
          </g>
          <g id="Fig:densplot_01.ticklabels.bottom.panel.1.1.1">
            <g id="Fig:densplot_01.ticklabels.bottom.panel.1.1.1.1" transform="translate(60.46, 30.85)" stroke-width="0.1">
              <g id="Fig:densplot_01.ticklabels.bottom.panel.1.1.1.1.scale" transform="scale(1, -1)">
                <text x="0" y="0" id="Fig:densplot_01.ticklabels.bottom.panel.1.1.1.1.text" text-anchor="middle" stroke="rgb(0,0,0)" opacity="1" fill="rgb(0,0,0)" stroke-opacity="1" fill-opacity="1" font-size="9.6" font-weight="normal" font-style="normal">
                  <tspan id="Fig:densplot_01.ticklabels.bottom.panel.1.1.1.1.tspan.1" dy="7.18" x="0">0</tspan>
                </text>
              </g>
            </g>
            <g id="Fig:densplot_01.ticklabels.bottom.panel.1.1.1.2" transform="translate(118.5, 30.85)" stroke-width="0.1">
              <g id="Fig:densplot_01.ticklabels.bottom.panel.1.1.1.2.scale" transform="scale(1, -1)">
                <text x="0" y="0" id="Fig:densplot_01.ticklabels.bottom.panel.1.1.1.2.text" text-anchor="middle" stroke="rgb(0,0,0)" opacity="1" fill="rgb(0,0,0)" stroke-opacity="1" fill-opacity="1" font-size="9.6" font-weight="normal" font-style="normal">
                  <tspan id="Fig:densplot_01.ticklabels.bottom.panel.1.1.1.2.tspan.1" dy="7.18" x="0">500</tspan>
                </text>
              </g>
            </g>
            <g id="Fig:densplot_01.ticklabels.bottom.panel.1.1.1.3" transform="translate(176.54, 30.85)" stroke-width="0.1">
              <g id="Fig:densplot_01.ticklabels.bottom.panel.1.1.1.3.scale" transform="scale(1, -1)">
                <text x="0" y="0" id="Fig:densplot_01.ticklabels.bottom.panel.1.1.1.3.text" text-anchor="middle" stroke="rgb(0,0,0)" opacity="1" fill="rgb(0,0,0)" stroke-opacity="1" fill-opacity="1" font-size="9.6" font-weight="normal" font-style="normal">
                  <tspan id="Fig:densplot_01.ticklabels.bottom.panel.1.1.1.3.tspan.1" dy="7.18" x="0">1000</tspan>
                </text>
              </g>
            </g>
            <g id="Fig:densplot_01.ticklabels.bottom.panel.1.1.1.4" transform="translate(234.58, 30.85)" stroke-width="0.1">
              <g id="Fig:densplot_01.ticklabels.bottom.panel.1.1.1.4.scale" transform="scale(1, -1)">
                <text x="0" y="0" id="Fig:densplot_01.ticklabels.bottom.panel.1.1.1.4.text" text-anchor="middle" stroke="rgb(0,0,0)" opacity="1" fill="rgb(0,0,0)" stroke-opacity="1" fill-opacity="1" font-size="9.6" font-weight="normal" font-style="normal">
                  <tspan id="Fig:densplot_01.ticklabels.bottom.panel.1.1.1.4.tspan.1" dy="7.18" x="0">1500</tspan>
                </text>
              </g>
            </g>
          </g>
        </g>
        <defs>
          <clipPath id="Fig:densplot_01.panel.1.1.vp.2.clipPath">
            <rect x="44.8" y="42.19" width="231.2" height="191.81" fill="none" stroke="none"/>
          </clipPath>
        </defs>
        <g id="Fig:densplot_01.panel.1.1.vp.2" clip-path="url(#Fig:densplot_01.panel.1.1.vp.2.clipPath)">
          <g id="Fig:densplot_01.xyplot.lines.group.1.panel.1.1.1">
            <polyline id="Fig:densplot_01.xyplot.lines.group.1.panel.1.1.1.1" points="59.37,53.97 59.76,53.97 60.16,53.97 60.56,53.98 60.95,54.13 61.35,55.28 61.74,60.88 62.14,78.33 62.53,113.72 62.93,160.68 63.33,199.88 63.72,215.44 64.12,207.7 64.51,187.97 64.91,166.67 65.31,148.78 65.7,135.36 66.1,125.77 66.49,118.88 66.89,113.62 67.28,109.34 67.68,105.71 68.08,102.54 68.47,99.56 68.87,96.61 69.26,93.76 69.66,91.2 70.06,88.99 70.45,86.99 70.85,85.08 71.24,83.27 71.64,81.68 72.03,80.38 72.43,79.25 72.83,78.04 73.22,76.66 73.62,75.3 74.01,74.14 74.41,73.16 74.81,72.3 75.2,71.52 75.6,70.84 75.99,70.26 76.39,69.71 76.78,69.15 77.18,68.55 77.58,67.89 77.97,67.23 78.37,66.62 78.76,66.03 79.16,65.45 79.56,64.9 79.95,64.38 80.35,63.93 80.74,63.56 81.14,63.26 81.54,63 81.93,62.73 82.33,62.43 82.72,62.14 83.12,61.87 83.51,61.62 83.91,61.37 84.31,61.13 84.7,60.91 85.1,60.72 85.49,60.55 85.89,60.36 86.29,60.16 86.68,59.99 87.08,59.84 87.47,59.72 87.87,59.6 88.26,59.47 88.66,59.33 89.06,59.19 89.45,59.04 89.85,58.88 90.24,58.74 90.64,58.62 91.04,58.51 91.43,58.39 91.83,58.28 92.22,58.19 92.62,58.1 93.01,58.03 93.41,57.96 93.81,57.89 94.2,57.8 94.6,57.71 94.99,57.62 95.39,57.55 95.79,57.48 96.18,57.41 96.58,57.34 96.97,57.29 97.37,57.23 97.77,57.18 98.16,57.14 98.56,57.1 98.95,57.05 99.35,57 99.74,56.96 100.14,56.92 100.54,56.88 100.93,56.83 101.33,56.76 101.72,56.69 102.12,56.65 102.52,56.62 102.91,56.6 103.31,56.57 103.7,56.52 104.1,56.45 104.49,56.39 104.89,56.34 105.29,56.3 105.68,56.26 106.08,56.21 106.47,56.19 106.87,56.18 107.27,56.17 107.66,56.12 108.06,56.08 108.45,56.04 108.85,56.01 109.24,55.97 109.64,55.93 110.04,55.89 110.43,55.86 110.83,55.85 111.22,55.84 111.62,55.83 112.02,55.8 112.41,55.78 112.81,55.76 113.2,55.76 113.6,55.75 113.99,55.72 114.39,55.68 114.79,55.65 115.18,55.62 115.58,55.61 115.97,55.59 116.37,55.58 116.77,55.57 117.16,55.55 117.56,55.51 117.95,55.48 118.35,55.46 118.75,55.46 119.14,55.46 119.54,55.44 119.93,55.41 120.33,55.38 120.72,55.37 121.12,55.35 121.52,55.33 121.91,55.32 122.31,55.31 122.7,55.31 123.1,55.31 123.5,55.3 123.89,55.26 124.29,55.23 124.68,55.21 125.08,55.19 125.47,55.17 125.87,55.15 126.27,55.15 126.66,55.16 127.06,55.16 127.45,55.15 127.85,55.13 128.25,55.12 128.64,55.12 129.04,55.11 129.43,55.1 129.83,55.08 130.22,55.07 130.62,55.06 131.02,55.04 131.41,55.03 131.81,55.02 132.2,55.02 132.6,55.03 133,55.03 133.39,55.02 133.79,55 134.18,55 134.58,55 134.98,54.99 135.37,54.97 135.77,54.95 136.16,54.93 136.56,54.91 136.95,54.89 137.35,54.87 137.75,54.85 138.14,54.84 138.54,54.84 138.93,54.83 139.33,54.83 139.73,54.82 140.12,54.83 140.52,54.84 140.91,54.84 141.31,54.83 141.7,54.82 142.1,54.8 142.5,54.78 142.89,54.78 143.29,54.77 143.68,54.77 144.08,54.76 144.48,54.75 144.87,54.75 145.27,54.75 145.66,54.76 146.06,54.76 146.45,54.74 146.85,54.72 147.25,54.7 147.64,54.7 148.04,54.7 148.43,54.7 148.83,54.69 149.23,54.69 149.62,54.68 150.02,54.68 150.41,54.67 150.81,54.67 151.21,54.66 151.6,54.66 152,54.66 152.39,54.66 152.79,54.66 153.18,54.66 153.58,54.64 153.98,54.62 154.37,54.6 154.77,54.6 155.16,54.61 155.56,54.62 155.96,54.62 156.35,54.61 156.75,54.6 157.14,54.59 157.54,54.57 157.93,54.56 158.33,54.55 158.73,54.56 159.12,54.57 159.52,54.6 159.91,54.6 160.31,54.59 160.71,54.56 161.1,54.54 161.5,54.54 161.89,54.54 162.29,54.53 162.68,54.53 163.08,54.51 163.48,54.49 163.87,54.48 164.27,54.48 164.66,54.48 165.06,54.48 165.46,54.48 165.85,54.48 166.25,54.48 166.64,54.49 167.04,54.49 167.43,54.48 167.83,54.47 168.23,54.46 168.62,54.46 169.02,54.46 169.41,54.46 169.81,54.46 170.21,54.46 170.6,54.46 171,54.45 171.39,54.44 171.79,54.44 172.19,54.43 172.58,54.43 172.98,54.42 173.37,54.42 173.77,54.42 174.16,54.42 174.56,54.42 174.96,54.42 175.35,54.42 175.75,54.42 176.14,54.41 176.54,54.41 176.94,54.4 177.33,54.4 177.73,54.4 178.12,54.4 178.52,54.39 178.91,54.37 179.31,54.36 179.71,54.36 180.1,54.38 180.5,54.39 180.89,54.39 181.29,54.38 181.69,54.37 182.08,54.38 182.48,54.37 182.87,54.36 183.27,54.36 183.66,54.35 184.06,54.35 184.46,54.35 184.85,54.35 185.25,54.35 185.64,54.35 186.04,54.34 186.44,54.33 186.83,54.32 187.23,54.32 187.62,54.32 188.02,54.33 188.42,54.33 188.81,54.33 189.21,54.33 189.6,54.33 190,54.32 190.39,54.31 190.79,54.31 191.19,54.31 191.58,54.31 191.98,54.32 192.37,54.32 192.77,54.32 193.17,54.31 193.56,54.31 193.96,54.31 194.35,54.3 194.75,54.3 195.14,54.31 195.54,54.31 195.94,54.31 196.33,54.3 196.73,54.29 197.12,54.28 197.52,54.28 197.92,54.29 198.31,54.29 198.71,54.28 199.1,54.27 199.5,54.27 199.89,54.27 200.29,54.27 200.69,54.28 201.08,54.27 201.48,54.27 201.87,54.27 202.27,54.27 202.67,54.28 203.06,54.28 203.46,54.28 203.85,54.27 204.25,54.26 204.64,54.26 205.04,54.26 205.44,54.26 205.83,54.27 206.23,54.27 206.62,54.27 207.02,54.27 207.42,54.26 207.81,54.25 208.21,54.25 208.6,54.25 209,54.25 209.4,54.24 209.79,54.23 210.19,54.23 210.58,54.24 210.98,54.25 211.37,54.25 211.77,54.26 212.17,54.25 212.56,54.24 212.96,54.23 213.35,54.23 213.75,54.24 214.15,54.24 214.54,54.24 214.94,54.23 215.33,54.23 215.73,54.23 216.12,54.22 216.52,54.21 216.92,54.2 217.31,54.2 217.71,54.2 218.1,54.2 218.5,54.19 218.9,54.19 219.29,54.19 219.69,54.19 220.08,54.18 220.48,54.18 220.87,54.18 221.27,54.18 221.67,54.2 222.06,54.2 222.46,54.2 222.85,54.19 223.25,54.19 223.65,54.2 224.04,54.2 224.44,54.19 224.83,54.18 225.23,54.18 225.63,54.19 226.02,54.2 226.42,54.2 226.81,54.2 227.21,54.2 227.6,54.19 228,54.19 228.4,54.19 228.79,54.19 229.19,54.18 229.58,54.18 229.98,54.17 230.38,54.17 230.77,54.17 231.17,54.17 231.56,54.18 231.96,54.18 232.35,54.18 232.75,54.17 233.15,54.16 233.54,54.16 233.94,54.16 234.33,54.16 234.73,54.16 235.13,54.16 235.52,54.16 235.92,54.16 236.31,54.15 236.71,54.15 237.1,54.16 237.5,54.15 237.9,54.15 238.29,54.15 238.69,54.15 239.08,54.15 239.48,54.15 239.88,54.15 240.27,54.15 240.67,54.15 241.06,54.14 241.46,54.15 241.85,54.16 242.25,54.16 242.65,54.16 243.04,54.15 243.44,54.15 243.83,54.15 244.23,54.14 244.63,54.14 245.02,54.14 245.42,54.15 245.81,54.15 246.21,54.14 246.61,54.14 247,54.13 247.4,54.13 247.79,54.13 248.19,54.13 248.58,54.13 248.98,54.13 249.38,54.13 249.77,54.13 250.17,54.14 250.56,54.13 250.96,54.13 251.36,54.12 251.75,54.12 252.15,54.12 252.54,54.13 252.94,54.13 253.33,54.12 253.73,54.12 254.13,54.12 254.52,54.13 254.92,54.13 255.31,54.13 255.71,54.13 256.11,54.13 256.5,54.13 256.9,54.12 257.29,54.12 257.69,54.12 258.08,54.11 258.48,54.1 258.88,54.09 259.27,54.1 259.67,54.09 260.06,54.06 260.46,54.02 260.86,53.99 261.25,53.97 261.65,53.97" stroke-dasharray="none" stroke="rgb(31,120,180)" stroke-width="0.75" opacity="1" stroke-opacity="1" fill="none"/>
          </g>
          <g id="Fig:densplot_01.xyplot.lines.group.2.panel.1.1.1">
            <polyline id="Fig:densplot_01.xyplot.lines.group.2.panel.1.1.1.1" points="60.4,53.97 60.79,54.11 61.18,55.33 61.58,61.93 61.97,83.72 62.36,126.62 62.76,174.91 63.15,202.77 63.54,205.97 63.94,195.85 64.33,180.44 64.72,164.17 65.12,150.18 65.51,139.32 65.9,130.96 66.3,124.61 66.69,119.66 67.08,115.32 67.48,111.24 67.87,107.53 68.27,104.18 68.66,100.85 69.05,97.44 69.45,94.22 69.84,91.31 70.23,88.83 70.63,86.77 71.02,84.9 71.41,83.09 71.81,81.49 72.2,80.18 72.59,79 72.99,77.67 73.38,76.17 73.77,74.71 74.17,73.43 74.56,72.28 74.95,71.26 75.35,70.36 75.74,69.58 76.14,68.87 76.53,68.22 76.92,67.6 77.32,67 77.71,66.41 78.1,65.86 78.5,65.38 78.89,64.97 79.28,64.56 79.68,64.15 80.07,63.75 80.46,63.4 80.86,63.06 81.25,62.71 81.64,62.41 82.04,62.16 82.43,61.89 82.82,61.6 83.22,61.34 83.61,61.1 84,60.84 84.4,60.6 84.79,60.38 85.19,60.18 85.58,60.01 85.97,59.86 86.37,59.71 86.76,59.55 87.15,59.42 87.55,59.3 87.94,59.17 88.33,59.02 88.73,58.88 89.12,58.79 89.51,58.68 89.91,58.54 90.3,58.41 90.69,58.3 91.09,58.19 91.48,58.06 91.87,57.94 92.27,57.84 92.66,57.77 93.05,57.69 93.45,57.57 93.84,57.48 94.24,57.43 94.63,57.37 95.02,57.3 95.42,57.22 95.81,57.16 96.2,57.1 96.6,57.05 96.99,57 97.38,56.93 97.78,56.85 98.17,56.79 98.56,56.75 98.96,56.69 99.35,56.62 99.74,56.58 100.14,56.58 100.53,56.57 100.92,56.53 101.32,56.47 101.71,56.4 102.11,56.36 102.5,56.35 102.89,56.34 103.29,56.31 103.68,56.27 104.07,56.22 104.47,56.18 104.86,56.14 105.25,56.1 105.65,56.04 106.04,55.98 106.43,55.94 106.83,55.93 107.22,55.91 107.61,55.88 108.01,55.86 108.4,55.83 108.79,55.8 109.19,55.76 109.58,55.73 109.97,55.71 110.37,55.69 110.76,55.67 111.16,55.66 111.55,55.62 111.94,55.57 112.34,55.53 112.73,55.51 113.12,55.52 113.52,55.53 113.91,55.51 114.3,55.48 114.7,55.44 115.09,55.4 115.48,55.38 115.88,55.36 116.27,55.35 116.66,55.36 117.06,55.37 117.45,55.36 117.84,55.35 118.24,55.33 118.63,55.29 119.03,55.26 119.42,55.23 119.81,55.2 120.21,55.19 120.6,55.19 120.99,55.19 121.39,55.19 121.78,55.2 122.17,55.21 122.57,55.21 122.96,55.18 123.35,55.14 123.75,55.09 124.14,55.06 124.53,55.05 124.93,55.05 125.32,55.06 125.71,55.07 126.11,55.06 126.5,55.03 126.89,55.01 127.29,55.01 127.68,55.01 128.08,54.99 128.47,54.96 128.86,54.94 129.26,54.93 129.65,54.93 130.04,54.94 130.44,54.95 130.83,54.94 131.22,54.93 131.62,54.92 132.01,54.91 132.4,54.91 132.8,54.91 133.19,54.9 133.58,54.88 133.98,54.85 134.37,54.84 134.76,54.84 135.16,54.83 135.55,54.81 135.94,54.78 136.34,54.76 136.73,54.76 137.13,54.75 137.52,54.72 137.91,54.69 138.31,54.69 138.7,54.71 139.09,54.72 139.49,54.73 139.88,54.73 140.27,54.72 140.67,54.71 141.06,54.7 141.45,54.69 141.85,54.68 142.24,54.68 142.63,54.68 143.03,54.67 143.42,54.67 143.81,54.67 144.21,54.65 144.6,54.62 145,54.6 145.39,54.59 145.78,54.59 146.18,54.59 146.57,54.59 146.96,54.59 147.36,54.6 147.75,54.61 148.14,54.61 148.54,54.59 148.93,54.57 149.32,54.55 149.72,54.55 150.11,54.57 150.5,54.57 150.9,54.56 151.29,54.55 151.68,54.56 152.08,54.57 152.47,54.57 152.86,54.55 153.26,54.53 153.65,54.52 154.05,54.53 154.44,54.53 154.83,54.53 155.23,54.53 155.62,54.51 156.01,54.5 156.41,54.5 156.8,54.5 157.19,54.5 157.59,54.51 157.98,54.51 158.37,54.5 158.77,54.5 159.16,54.5 159.55,54.48 159.95,54.46 160.34,54.44 160.73,54.42 161.13,54.42 161.52,54.43 161.91,54.43 162.31,54.42 162.7,54.42 163.1,54.43 163.49,54.43 163.88,54.42 164.28,54.41 164.67,54.4 165.06,54.4 165.46,54.39 165.85,54.38 166.24,54.38 166.64,54.39 167.03,54.41 167.42,54.42 167.82,54.42 168.21,54.42 168.6,54.41 169,54.4 169.39,54.39 169.78,54.38 170.18,54.37 170.57,54.35 170.97,54.35 171.36,54.35 171.75,54.35 172.15,54.34 172.54,54.33 172.93,54.33 173.33,54.34 173.72,54.35 174.11,54.34 174.51,54.33 174.9,54.33 175.29,54.33 175.69,54.32 176.08,54.32 176.47,54.31 176.87,54.31 177.26,54.31 177.65,54.32 178.05,54.31 178.44,54.3 178.83,54.3 179.23,54.3 179.62,54.31 180.02,54.31 180.41,54.3 180.8,54.3 181.2,54.29 181.59,54.29 181.98,54.3 182.38,54.31 182.77,54.32 183.16,54.32 183.56,54.3 183.95,54.27 184.34,54.26 184.74,54.26 185.13,54.26 185.52,54.26 185.92,54.26 186.31,54.25 186.7,54.26 187.1,54.27 187.49,54.28 187.88,54.27 188.28,54.25 188.67,54.25 189.07,54.25 189.46,54.25 189.85,54.25 190.25,54.24 190.64,54.23 191.03,54.23 191.43,54.23 191.82,54.23 192.21,54.24 192.61,54.24 193,54.24 193.39,54.24 193.79,54.24 194.18,54.24 194.57,54.24 194.97,54.24 195.36,54.25 195.75,54.25 196.15,54.25 196.54,54.24 196.94,54.23 197.33,54.22 197.72,54.22 198.12,54.23 198.51,54.23 198.9,54.23 199.3,54.22 199.69,54.21 200.08,54.22 200.48,54.23 200.87,54.24 201.26,54.23 201.66,54.22 202.05,54.21 202.44,54.21 202.84,54.21 203.23,54.21 203.62,54.21 204.02,54.2 204.41,54.19 204.8,54.19 205.2,54.2 205.59,54.19 205.99,54.19 206.38,54.19 206.77,54.19 207.17,54.19 207.56,54.19 207.95,54.18 208.35,54.18 208.74,54.18 209.13,54.19 209.53,54.19 209.92,54.19 210.31,54.19 210.71,54.19 211.1,54.19 211.49,54.19 211.89,54.19 212.28,54.19 212.67,54.18 213.07,54.17 213.46,54.17 213.85,54.16 214.25,54.16 214.64,54.16 215.04,54.16 215.43,54.17 215.82,54.16 216.22,54.16 216.61,54.17 217,54.17 217.4,54.17 217.79,54.17 218.18,54.18 218.58,54.17 218.97,54.17 219.36,54.17 219.76,54.16 220.15,54.16 220.54,54.17 220.94,54.17 221.33,54.16 221.72,54.15 222.12,54.15 222.51,54.15 222.91,54.15 223.3,54.15 223.69,54.14 224.09,54.14 224.48,54.14 224.87,54.14 225.27,54.14 225.66,54.15 226.05,54.16 226.45,54.16 226.84,54.16 227.23,54.15 227.63,54.14 228.02,54.14 228.41,54.14 228.81,54.14 229.2,54.14 229.59,54.14 229.99,54.13 230.38,54.12 230.77,54.11 231.17,54.12 231.56,54.12 231.96,54.12 232.35,54.12 232.74,54.13 233.14,54.12 233.53,54.12 233.92,54.12 234.32,54.13 234.71,54.13 235.1,54.12 235.5,54.12 235.89,54.12 236.28,54.11 236.68,54.11 237.07,54.11 237.46,54.12 237.86,54.12 238.25,54.12 238.64,54.12 239.04,54.11 239.43,54.11 239.83,54.11 240.22,54.11 240.61,54.11 241.01,54.11 241.4,54.11 241.79,54.11 242.19,54.11 242.58,54.11 242.97,54.11 243.37,54.1 243.76,54.1 244.15,54.1 244.55,54.1 244.94,54.11 245.33,54.11 245.73,54.1 246.12,54.1 246.51,54.1 246.91,54.1 247.3,54.1 247.69,54.09 248.09,54.09 248.48,54.09 248.88,54.09 249.27,54.09 249.66,54.08 250.06,54.08 250.45,54.08 250.84,54.08 251.24,54.08 251.63,54.08 252.02,54.08 252.42,54.08 252.81,54.08 253.2,54.07 253.6,54.07 253.99,54.08 254.38,54.09 254.78,54.09 255.17,54.09 255.56,54.08 255.96,54.08 256.35,54.08 256.74,54.08 257.14,54.08 257.53,54.08 257.93,54.09 258.32,54.09 258.71,54.1 259.11,54.09 259.5,54.08 259.89,54.06 260.29,54.02 260.68,53.99 261.07,53.97 261.47,53.97" stroke-dasharray="none" stroke="rgb(31,120,180)" stroke-width="0.75" opacity="1" stroke-opacity="1" fill="none"/>
          </g>
          <g id="Fig:densplot_01.xyplot.lines.group.3.panel.1.1.1">
            <polyline id="Fig:densplot_01.xyplot.lines.group.3.panel.1.1.1.1" points="60,53.98 60.4,54.12 60.79,55.03 61.19,59.13 61.58,71.74 61.98,98.31 62.37,135.87 62.77,169.89 63.16,186.93 63.55,186.72 63.95,176.96 64.34,163.72 64.74,150.16 65.13,138.18 65.53,128.67 65.92,121.54 66.32,116.16 66.71,111.9 67.11,108.33 67.5,105.19 67.9,102.37 68.29,99.78 68.69,97.28 69.08,94.82 69.48,92.48 69.87,90.31 70.27,88.3 70.66,86.45 71.06,84.76 71.45,83.27 71.85,81.99 72.24,80.83 72.64,79.63 73.03,78.32 73.43,76.96 73.82,75.73 74.22,74.68 74.61,73.76 75.01,72.86 75.4,71.96 75.8,71.12 76.19,70.38 76.59,69.72 76.98,69.08 77.38,68.47 77.77,67.91 78.17,67.39 78.56,66.88 78.96,66.37 79.35,65.88 79.75,65.44 80.14,65.05 80.54,64.7 80.93,64.36 81.33,64.02 81.72,63.7 82.12,63.39 82.51,63.08 82.91,62.83 83.3,62.6 83.7,62.38 84.09,62.12 84.49,61.82 84.88,61.54 85.28,61.31 85.67,61.08 86.07,60.85 86.46,60.64 86.86,60.47 87.25,60.32 87.64,60.18 88.04,60.03 88.43,59.88 88.83,59.74 89.22,59.59 89.62,59.45 90.01,59.31 90.41,59.19 90.8,59.05 91.2,58.91 91.59,58.78 91.99,58.65 92.38,58.53 92.78,58.42 93.17,58.33 93.57,58.24 93.96,58.17 94.36,58.09 94.75,58.01 95.15,57.93 95.54,57.85 95.94,57.77 96.33,57.7 96.73,57.64 97.12,57.59 97.52,57.56 97.91,57.53 98.31,57.49 98.7,57.42 99.1,57.34 99.49,57.26 99.89,57.19 100.28,57.13 100.68,57.06 101.07,57 101.47,56.93 101.86,56.88 102.26,56.85 102.65,56.82 103.05,56.79 103.44,56.74 103.84,56.71 104.23,56.68 104.63,56.64 105.02,56.59 105.42,56.55 105.81,56.49 106.21,56.44 106.6,56.39 107,56.34 107.39,56.3 107.79,56.28 108.18,56.25 108.58,56.22 108.97,56.18 109.37,56.14 109.76,56.09 110.16,56.06 110.55,56.04 110.95,56.03 111.34,56 111.73,55.97 112.13,55.94 112.52,55.92 112.92,55.91 113.31,55.88 113.71,55.86 114.1,55.83 114.5,55.81 114.89,55.78 115.29,55.74 115.68,55.7 116.08,55.67 116.47,55.64 116.87,55.62 117.26,55.61 117.66,55.61 118.05,55.61 118.45,55.59 118.84,55.57 119.24,55.54 119.63,55.51 120.03,55.49 120.42,55.47 120.82,55.45 121.21,55.43 121.61,55.4 122,55.39 122.4,55.38 122.79,55.38 123.19,55.36 123.58,55.33 123.98,55.31 124.37,55.3 124.77,55.29 125.16,55.28 125.56,55.27 125.95,55.27 126.35,55.27 126.74,55.26 127.14,55.23 127.53,55.2 127.93,55.18 128.32,55.17 128.72,55.17 129.11,55.17 129.51,55.16 129.9,55.16 130.3,55.15 130.69,55.14 131.09,55.12 131.48,55.1 131.88,55.08 132.27,55.07 132.67,55.06 133.06,55.06 133.46,55.06 133.85,55.06 134.25,55.05 134.64,55.03 135.04,55 135.43,54.98 135.82,54.97 136.22,54.96 136.61,54.97 137.01,54.96 137.4,54.96 137.8,54.96 138.19,54.95 138.59,54.94 138.98,54.93 139.38,54.92 139.77,54.92 140.17,54.91 140.56,54.9 140.96,54.87 141.35,54.85 141.75,54.83 142.14,54.83 142.54,54.83 142.93,54.84 143.33,54.84 143.72,54.83 144.12,54.82 144.51,54.81 144.91,54.8 145.3,54.81 145.7,54.8 146.09,54.79 146.49,54.78 146.88,54.76 147.28,54.74 147.67,54.73 148.07,54.73 148.46,54.72 148.86,54.72 149.25,54.72 149.65,54.72 150.04,54.71 150.44,54.7 150.83,54.69 151.23,54.68 151.62,54.67 152.02,54.67 152.41,54.66 152.81,54.66 153.2,54.65 153.6,54.64 153.99,54.63 154.39,54.62 154.78,54.61 155.18,54.6 155.57,54.59 155.97,54.59 156.36,54.6 156.76,54.6 157.15,54.6 157.55,54.6 157.94,54.59 158.34,54.58 158.73,54.58 159.13,54.58 159.52,54.58 159.91,54.58 160.31,54.57 160.7,54.56 161.1,54.55 161.49,54.54 161.89,54.53 162.28,54.55 162.68,54.56 163.07,54.56 163.47,54.56 163.86,54.55 164.26,54.55 164.65,54.54 165.05,54.52 165.44,54.51 165.84,54.5 166.23,54.49 166.63,54.49 167.02,54.49 167.42,54.5 167.81,54.5 168.21,54.5 168.6,54.5 169,54.48 169.39,54.46 169.79,54.45 170.18,54.46 170.58,54.47 170.97,54.47 171.37,54.47 171.76,54.47 172.16,54.48 172.55,54.48 172.95,54.47 173.34,54.46 173.74,54.45 174.13,54.44 174.53,54.43 174.92,54.42 175.32,54.41 175.71,54.41 176.11,54.4 176.5,54.39 176.9,54.39 177.29,54.4 177.69,54.41 178.08,54.41 178.48,54.41 178.87,54.4 179.27,54.39 179.66,54.39 180.06,54.39 180.45,54.39 180.85,54.39 181.24,54.39 181.64,54.39 182.03,54.39 182.43,54.38 182.82,54.37 183.22,54.36 183.61,54.35 184,54.34 184.4,54.34 184.79,54.34 185.19,54.35 185.58,54.35 185.98,54.35 186.37,54.35 186.77,54.35 187.16,54.36 187.56,54.35 187.95,54.35 188.35,54.34 188.74,54.33 189.14,54.33 189.53,54.33 189.93,54.32 190.32,54.32 190.72,54.32 191.11,54.32 191.51,54.32 191.9,54.32 192.3,54.32 192.69,54.32 193.09,54.31 193.48,54.31 193.88,54.3 194.27,54.29 194.67,54.29 195.06,54.3 195.46,54.3 195.85,54.31 196.25,54.31 196.64,54.31 197.04,54.3 197.43,54.29 197.83,54.28 198.22,54.27 198.62,54.27 199.01,54.26 199.41,54.27 199.8,54.27 200.2,54.27 200.59,54.26 200.99,54.26 201.38,54.25 201.78,54.26 202.17,54.27 202.57,54.27 202.96,54.26 203.36,54.27 203.75,54.27 204.15,54.27 204.54,54.27 204.94,54.26 205.33,54.25 205.73,54.25 206.12,54.25 206.52,54.25 206.91,54.26 207.31,54.26 207.7,54.26 208.09,54.25 208.49,54.24 208.88,54.24 209.28,54.24 209.67,54.25 210.07,54.25 210.46,54.25 210.86,54.24 211.25,54.23 211.65,54.22 212.04,54.23 212.44,54.24 212.83,54.25 213.23,54.24 213.62,54.23 214.02,54.22 214.41,54.21 214.81,54.21 215.2,54.22 215.6,54.22 215.99,54.22 216.39,54.21 216.78,54.21 217.18,54.21 217.57,54.21 217.97,54.2 218.36,54.2 218.76,54.2 219.15,54.2 219.55,54.2 219.94,54.19 220.34,54.18 220.73,54.18 221.13,54.18 221.52,54.19 221.92,54.19 222.31,54.19 222.71,54.19 223.1,54.19 223.5,54.19 223.89,54.2 224.29,54.21 224.68,54.21 225.08,54.21 225.47,54.2 225.87,54.2 226.26,54.2 226.66,54.19 227.05,54.19 227.45,54.19 227.84,54.19 228.24,54.19 228.63,54.18 229.03,54.17 229.42,54.16 229.82,54.16 230.21,54.15 230.61,54.16 231,54.16 231.4,54.16 231.79,54.17 232.18,54.18 232.58,54.18 232.97,54.18 233.37,54.17 233.76,54.16 234.16,54.16 234.55,54.16 234.95,54.16 235.34,54.15 235.74,54.15 236.13,54.14 236.53,54.15 236.92,54.15 237.32,54.16 237.71,54.16 238.11,54.16 238.5,54.16 238.9,54.16 239.29,54.15 239.69,54.15 240.08,54.14 240.48,54.14 240.87,54.15 241.27,54.15 241.66,54.14 242.06,54.14 242.45,54.14 242.85,54.14 243.24,54.14 243.64,54.15 244.03,54.15 244.43,54.14 244.82,54.14 245.22,54.14 245.61,54.14 246.01,54.13 246.4,54.14 246.8,54.14 247.19,54.14 247.59,54.14 247.98,54.13 248.38,54.13 248.77,54.12 249.17,54.12 249.56,54.12 249.96,54.12 250.35,54.13 250.75,54.13 251.14,54.14 251.54,54.14 251.93,54.14 252.33,54.14 252.72,54.13 253.12,54.13 253.51,54.13 253.91,54.13 254.3,54.13 254.7,54.12 255.09,54.12 255.49,54.11 255.88,54.11 256.27,54.11 256.67,54.11 257.06,54.12 257.46,54.13 257.85,54.13 258.25,54.13 258.64,54.12 259.04,54.12 259.43,54.11 259.83,54.08 260.22,54.04 260.62,54.01 261.01,53.98 261.41,53.97 261.8,53.97" stroke-dasharray="none" stroke="rgb(31,120,180)" stroke-width="0.75" opacity="1" stroke-opacity="1" fill="none"/>
          </g>
          <g id="Fig:densplot_01.xyplot.lines.group.4.panel.1.1.1">
            <polyline id="Fig:densplot_01.xyplot.lines.group.4.panel.1.1.1.1" points="60.71,53.97 61.1,54.03 61.49,54.53 61.89,57.41 62.28,67.91 62.67,93.37 63.07,135.03 63.46,181.09 63.85,213.44 64.25,222.22 64.64,211 65.03,189.87 65.43,167.58 65.82,148.67 66.21,134.33 66.61,123.95 67,116.31 67.39,110.45 67.79,105.83 68.18,102.12 68.57,98.88 68.97,95.82 69.36,92.97 69.75,90.45 70.14,88.21 70.54,86.18 70.93,84.31 71.32,82.6 71.72,81.06 72.11,79.72 72.5,78.52 72.9,77.3 73.29,75.97 73.68,74.64 74.08,73.45 74.47,72.4 74.86,71.46 75.26,70.67 75.65,69.99 76.04,69.37 76.44,68.72 76.83,68.01 77.22,67.36 77.61,66.8 78.01,66.31 78.4,65.88 78.79,65.46 79.19,65.01 79.58,64.57 79.97,64.15 80.37,63.75 80.76,63.41 81.15,63.12 81.55,62.85 81.94,62.58 82.33,62.27 82.73,61.96 83.12,61.71 83.51,61.53 83.91,61.4 84.3,61.21 84.69,60.96 85.08,60.7 85.48,60.47 85.87,60.28 86.26,60.14 86.66,60.01 87.05,59.86 87.44,59.7 87.84,59.55 88.23,59.41 88.62,59.26 89.02,59.11 89.41,58.98 89.8,58.86 90.2,58.75 90.59,58.63 90.98,58.5 91.38,58.4 91.77,58.29 92.16,58.19 92.56,58.11 92.95,58.03 93.34,57.96 93.73,57.86 94.13,57.78 94.52,57.72 94.91,57.66 95.31,57.59 95.7,57.5 96.09,57.43 96.49,57.38 96.88,57.32 97.27,57.25 97.67,57.19 98.06,57.15 98.45,57.11 98.85,57.07 99.24,57.03 99.63,56.98 100.03,56.91 100.42,56.83 100.81,56.76 101.2,56.72 101.6,56.7 101.99,56.7 102.38,56.7 102.78,56.67 103.17,56.6 103.56,56.53 103.96,56.49 104.35,56.45 104.74,56.4 105.14,56.34 105.53,56.28 105.92,56.24 106.32,56.22 106.71,56.22 107.1,56.21 107.5,56.19 107.89,56.16 108.28,56.11 108.68,56.07 109.07,56.04 109.46,56.01 109.85,55.98 110.25,55.95 110.64,55.91 111.03,55.88 111.43,55.85 111.82,55.83 112.21,55.81 112.61,55.79 113,55.78 113.39,55.79 113.79,55.78 114.18,55.75 114.57,55.7 114.97,55.66 115.36,55.64 115.75,55.62 116.15,55.6 116.54,55.58 116.93,55.55 117.32,55.53 117.72,55.52 118.11,55.5 118.5,55.47 118.9,55.46 119.29,55.43 119.68,55.39 120.08,55.36 120.47,55.35 120.86,55.36 121.26,55.37 121.65,55.36 122.04,55.33 122.44,55.32 122.83,55.31 123.22,55.31 123.62,55.29 124.01,55.28 124.4,55.26 124.8,55.25 125.19,55.24 125.58,55.23 125.97,55.22 126.37,55.2 126.76,55.18 127.15,55.17 127.55,55.16 127.94,55.17 128.33,55.17 128.73,55.15 129.12,55.13 129.51,55.12 129.91,55.12 130.3,55.1 130.69,55.09 131.09,55.09 131.48,55.1 131.87,55.11 132.27,55.1 132.66,55.09 133.05,55.07 133.44,55.05 133.84,55.02 134.23,55 134.62,54.99 135.02,54.98 135.41,54.98 135.8,54.98 136.2,54.96 136.59,54.94 136.98,54.93 137.38,54.93 137.77,54.91 138.16,54.89 138.56,54.87 138.95,54.87 139.34,54.87 139.74,54.87 140.13,54.86 140.52,54.85 140.92,54.84 141.31,54.83 141.7,54.83 142.09,54.83 142.49,54.84 142.88,54.84 143.27,54.84 143.67,54.82 144.06,54.8 144.45,54.77 144.85,54.76 145.24,54.76 145.63,54.75 146.03,54.75 146.42,54.75 146.81,54.76 147.21,54.76 147.6,54.76 147.99,54.77 148.39,54.77 148.78,54.76 149.17,54.74 149.56,54.73 149.96,54.73 150.35,54.72 150.74,54.72 151.14,54.71 151.53,54.69 151.92,54.68 152.32,54.67 152.71,54.66 153.1,54.66 153.5,54.65 153.89,54.65 154.28,54.64 154.68,54.64 155.07,54.64 155.46,54.65 155.86,54.66 156.25,54.67 156.64,54.66 157.04,54.64 157.43,54.62 157.82,54.61 158.21,54.59 158.61,54.58 159,54.57 159.39,54.57 159.79,54.58 160.18,54.58 160.57,54.58 160.97,54.57 161.36,54.57 161.75,54.57 162.15,54.57 162.54,54.56 162.93,54.55 163.33,54.55 163.72,54.55 164.11,54.54 164.51,54.54 164.9,54.53 165.29,54.53 165.68,54.52 166.08,54.52 166.47,54.52 166.86,54.52 167.26,54.53 167.65,54.52 168.04,54.51 168.44,54.49 168.83,54.48 169.22,54.48 169.62,54.49 170.01,54.49 170.4,54.5 170.8,54.5 171.19,54.49 171.58,54.48 171.98,54.48 172.37,54.48 172.76,54.47 173.16,54.45 173.55,54.44 173.94,54.44 174.33,54.44 174.73,54.44 175.12,54.43 175.51,54.41 175.91,54.4 176.3,54.4 176.69,54.41 177.09,54.42 177.48,54.42 177.87,54.43 178.27,54.43 178.66,54.42 179.05,54.42 179.45,54.42 179.84,54.42 180.23,54.43 180.63,54.42 181.02,54.41 181.41,54.39 181.8,54.38 182.2,54.38 182.59,54.38 182.98,54.38 183.38,54.39 183.77,54.39 184.16,54.39 184.56,54.38 184.95,54.37 185.34,54.37 185.74,54.37 186.13,54.37 186.52,54.37 186.92,54.36 187.31,54.36 187.7,54.36 188.1,54.36 188.49,54.37 188.88,54.37 189.28,54.38 189.67,54.37 190.06,54.36 190.45,54.36 190.85,54.35 191.24,54.35 191.63,54.34 192.03,54.34 192.42,54.33 192.81,54.33 193.21,54.34 193.6,54.35 193.99,54.35 194.39,54.35 194.78,54.35 195.17,54.34 195.57,54.34 195.96,54.34 196.35,54.32 196.75,54.31 197.14,54.3 197.53,54.3 197.92,54.3 198.32,54.3 198.71,54.3 199.1,54.29 199.5,54.28 199.89,54.29 200.28,54.3 200.68,54.3 201.07,54.29 201.46,54.28 201.86,54.27 202.25,54.27 202.64,54.28 203.04,54.28 203.43,54.29 203.82,54.29 204.22,54.28 204.61,54.28 205,54.27 205.39,54.27 205.79,54.28 206.18,54.28 206.57,54.28 206.97,54.28 207.36,54.28 207.75,54.27 208.15,54.27 208.54,54.27 208.93,54.27 209.33,54.27 209.72,54.27 210.11,54.27 210.51,54.27 210.9,54.27 211.29,54.27 211.69,54.27 212.08,54.27 212.47,54.27 212.87,54.26 213.26,54.26 213.65,54.26 214.04,54.25 214.44,54.24 214.83,54.24 215.22,54.23 215.62,54.23 216.01,54.23 216.4,54.24 216.8,54.24 217.19,54.24 217.58,54.23 217.98,54.23 218.37,54.22 218.76,54.22 219.16,54.22 219.55,54.22 219.94,54.22 220.34,54.22 220.73,54.23 221.12,54.23 221.51,54.24 221.91,54.24 222.3,54.23 222.69,54.23 223.09,54.23 223.48,54.23 223.87,54.23 224.27,54.23 224.66,54.22 225.05,54.21 225.45,54.21 225.84,54.21 226.23,54.21 226.63,54.2 227.02,54.19 227.41,54.19 227.81,54.2 228.2,54.2 228.59,54.2 228.99,54.2 229.38,54.19 229.77,54.19 230.16,54.19 230.56,54.19 230.95,54.19 231.34,54.19 231.74,54.19 232.13,54.2 232.52,54.2 232.92,54.2 233.31,54.2 233.7,54.18 234.1,54.18 234.49,54.18 234.88,54.19 235.28,54.19 235.67,54.18 236.06,54.18 236.46,54.18 236.85,54.19 237.24,54.2 237.63,54.19 238.03,54.18 238.42,54.17 238.81,54.16 239.21,54.16 239.6,54.16 239.99,54.17 240.39,54.17 240.78,54.18 241.17,54.18 241.57,54.18 241.96,54.18 242.35,54.17 242.75,54.17 243.14,54.17 243.53,54.17 243.93,54.17 244.32,54.17 244.71,54.17 245.11,54.18 245.5,54.18 245.89,54.17 246.28,54.17 246.68,54.17 247.07,54.17 247.46,54.17 247.86,54.17 248.25,54.16 248.64,54.16 249.04,54.16 249.43,54.16 249.82,54.16 250.22,54.15 250.61,54.15 251,54.15 251.4,54.14 251.79,54.14 252.18,54.15 252.58,54.15 252.97,54.15 253.36,54.15 253.75,54.15 254.15,54.15 254.54,54.15 254.93,54.15 255.33,54.14 255.72,54.14 256.11,54.14 256.51,54.14 256.9,54.14 257.29,54.15 257.69,54.15 258.08,54.14 258.47,54.14 258.87,54.14 259.26,54.14 259.65,54.11 260.05,54.07 260.44,54.02 260.83,53.99 261.23,53.97 261.62,53.97" stroke-dasharray="none" stroke="rgb(31,120,180)" stroke-width="0.75" opacity="1" stroke-opacity="1" fill="none"/>
          </g>
          <g id="Fig:densplot_01.xyplot.lines.group.5.panel.1.1.1">
            <polyline id="Fig:densplot_01.xyplot.lines.group.5.panel.1.1.1.1" points="60.35,53.97 60.75,54.1 61.14,55.18 61.53,60.79 61.93,78.62 62.32,113.88 62.71,157.1 63.11,188.33 63.5,198.41 63.9,193.42 64.29,181.33 64.68,166.59 65.08,152.34 65.47,140.57 65.86,131.59 66.26,124.84 66.65,119.57 67.05,115.06 67.44,111.06 67.83,107.64 68.23,104.66 68.62,101.74 69.01,98.6 69.41,95.47 69.8,92.68 70.19,90.33 70.59,88.27 70.98,86.33 71.38,84.46 71.77,82.82 72.16,81.47 72.56,80.18 72.95,78.7 73.34,77.16 73.74,75.81 74.13,74.62 74.53,73.55 74.92,72.55 75.31,71.63 75.71,70.78 76.1,70.01 76.49,69.25 76.89,68.54 77.28,67.88 77.67,67.28 78.07,66.71 78.46,66.18 78.86,65.67 79.25,65.2 79.64,64.78 80.04,64.38 80.43,63.99 80.82,63.62 81.22,63.26 81.61,62.95 82.01,62.65 82.4,62.34 82.79,62.05 83.19,61.8 83.58,61.57 83.97,61.3 84.37,61 84.76,60.74 85.16,60.53 85.55,60.36 85.94,60.19 86.34,60.01 86.73,59.78 87.12,59.56 87.52,59.4 87.91,59.29 88.3,59.19 88.7,59.07 89.09,58.93 89.49,58.77 89.88,58.61 90.27,58.48 90.67,58.37 91.06,58.28 91.45,58.21 91.85,58.14 92.24,58.06 92.64,57.95 93.03,57.82 93.42,57.7 93.82,57.62 94.21,57.55 94.6,57.49 95,57.42 95.39,57.31 95.79,57.22 96.18,57.17 96.57,57.14 96.97,57.1 97.36,57.05 97.75,57.01 98.15,56.96 98.54,56.89 98.93,56.8 99.33,56.74 99.72,56.7 100.12,56.65 100.51,56.57 100.9,56.51 101.3,56.48 101.69,56.45 102.08,56.4 102.48,56.36 102.87,56.33 103.27,56.29 103.66,56.25 104.05,56.22 104.45,56.19 104.84,56.16 105.23,56.11 105.63,56.08 106.02,56.06 106.42,56.05 106.81,56.05 107.2,56 107.6,55.95 107.99,55.91 108.38,55.9 108.78,55.88 109.17,55.85 109.56,55.83 109.96,55.8 110.35,55.76 110.75,55.71 111.14,55.67 111.53,55.64 111.93,55.63 112.32,55.64 112.71,55.62 113.11,55.58 113.5,55.56 113.9,55.55 114.29,55.52 114.68,55.46 115.08,55.41 115.47,55.39 115.86,55.38 116.26,55.37 116.65,55.38 117.05,55.39 117.44,55.39 117.83,55.36 118.23,55.32 118.62,55.29 119.01,55.27 119.41,55.27 119.8,55.26 120.19,55.25 120.59,55.22 120.98,55.19 121.38,55.16 121.77,55.14 122.16,55.14 122.56,55.15 122.95,55.16 123.34,55.15 123.74,55.13 124.13,55.11 124.53,55.09 124.92,55.08 125.31,55.07 125.71,55.04 126.1,55.02 126.49,55.02 126.89,55.02 127.28,55.02 127.68,55.02 128.07,55.02 128.46,55.01 128.86,54.98 129.25,54.95 129.64,54.92 130.04,54.91 130.43,54.91 130.82,54.91 131.22,54.9 131.61,54.9 132.01,54.9 132.4,54.9 132.79,54.9 133.19,54.9 133.58,54.91 133.97,54.9 134.37,54.88 134.76,54.87 135.16,54.85 135.55,54.84 135.94,54.83 136.34,54.81 136.73,54.8 137.12,54.8 137.52,54.78 137.91,54.77 138.3,54.76 138.7,54.74 139.09,54.73 139.49,54.73 139.88,54.73 140.27,54.73 140.67,54.73 141.06,54.73 141.45,54.73 141.85,54.73 142.24,54.73 142.64,54.73 143.03,54.72 143.42,54.69 143.82,54.67 144.21,54.66 144.6,54.65 145,54.65 145.39,54.64 145.79,54.64 146.18,54.64 146.57,54.64 146.97,54.63 147.36,54.62 147.75,54.62 148.15,54.61 148.54,54.61 148.93,54.6 149.33,54.6 149.72,54.6 150.12,54.59 150.51,54.58 150.9,54.56 151.3,54.55 151.69,54.55 152.08,54.56 152.48,54.56 152.87,54.56 153.27,54.55 153.66,54.55 154.05,54.56 154.45,54.55 154.84,54.54 155.23,54.52 155.63,54.49 156.02,54.48 156.42,54.48 156.81,54.49 157.2,54.51 157.6,54.52 157.99,54.51 158.38,54.49 158.78,54.47 159.17,54.46 159.56,54.47 159.96,54.47 160.35,54.47 160.75,54.45 161.14,54.46 161.53,54.46 161.93,54.46 162.32,54.45 162.71,54.44 163.11,54.43 163.5,54.43 163.9,54.43 164.29,54.44 164.68,54.44 165.08,54.43 165.47,54.43 165.86,54.43 166.26,54.44 166.65,54.44 167.05,54.43 167.44,54.42 167.83,54.41 168.23,54.41 168.62,54.4 169.01,54.4 169.41,54.39 169.8,54.38 170.19,54.37 170.59,54.35 170.98,54.36 171.38,54.37 171.77,54.38 172.16,54.37 172.56,54.37 172.95,54.37 173.34,54.37 173.74,54.38 174.13,54.38 174.53,54.37 174.92,54.36 175.31,54.35 175.71,54.35 176.1,54.34 176.49,54.34 176.89,54.35 177.28,54.35 177.68,54.35 178.07,54.33 178.46,54.31 178.86,54.31 179.25,54.33 179.64,54.34 180.04,54.35 180.43,54.34 180.82,54.33 181.22,54.32 181.61,54.32 182.01,54.32 182.4,54.32 182.79,54.32 183.19,54.32 183.58,54.31 183.97,54.31 184.37,54.29 184.76,54.28 185.16,54.27 185.55,54.26 185.94,54.27 186.34,54.28 186.73,54.28 187.12,54.27 187.52,54.27 187.91,54.27 188.31,54.27 188.7,54.27 189.09,54.27 189.49,54.26 189.88,54.25 190.27,54.24 190.67,54.25 191.06,54.25 191.45,54.26 191.85,54.26 192.24,54.27 192.64,54.27 193.03,54.27 193.42,54.27 193.82,54.27 194.21,54.27 194.6,54.26 195,54.26 195.39,54.26 195.79,54.26 196.18,54.25 196.57,54.25 196.97,54.25 197.36,54.24 197.75,54.24 198.15,54.23 198.54,54.23 198.93,54.23 199.33,54.23 199.72,54.23 200.12,54.23 200.51,54.23 200.9,54.23 201.3,54.23 201.69,54.23 202.08,54.23 202.48,54.23 202.87,54.22 203.27,54.21 203.66,54.2 204.05,54.2 204.45,54.21 204.84,54.21 205.23,54.2 205.63,54.19 206.02,54.19 206.42,54.2 206.81,54.2 207.2,54.21 207.6,54.2 207.99,54.19 208.38,54.19 208.78,54.2 209.17,54.2 209.56,54.2 209.96,54.2 210.35,54.2 210.75,54.2 211.14,54.19 211.53,54.19 211.93,54.19 212.32,54.19 212.71,54.2 213.11,54.2 213.5,54.2 213.9,54.2 214.29,54.19 214.68,54.19 215.08,54.19 215.47,54.19 215.86,54.19 216.26,54.18 216.65,54.18 217.05,54.18 217.44,54.17 217.83,54.17 218.23,54.17 218.62,54.18 219.01,54.17 219.41,54.17 219.8,54.17 220.19,54.16 220.59,54.16 220.98,54.15 221.38,54.15 221.77,54.16 222.16,54.17 222.56,54.17 222.95,54.16 223.34,54.16 223.74,54.16 224.13,54.16 224.53,54.16 224.92,54.16 225.31,54.16 225.71,54.16 226.1,54.15 226.49,54.14 226.89,54.15 227.28,54.15 227.68,54.15 228.07,54.15 228.46,54.15 228.86,54.15 229.25,54.16 229.64,54.15 230.04,54.14 230.43,54.14 230.82,54.13 231.22,54.13 231.61,54.13 232.01,54.13 232.4,54.13 232.79,54.13 233.19,54.13 233.58,54.13 233.97,54.13 234.37,54.13 234.76,54.14 235.16,54.15 235.55,54.15 235.94,54.14 236.34,54.13 236.73,54.13 237.12,54.12 237.52,54.12 237.91,54.12 238.31,54.12 238.7,54.12 239.09,54.12 239.49,54.11 239.88,54.12 240.27,54.12 240.67,54.12 241.06,54.12 241.45,54.12 241.85,54.12 242.24,54.12 242.64,54.12 243.03,54.12 243.42,54.12 243.82,54.12 244.21,54.11 244.6,54.11 245,54.11 245.39,54.11 245.79,54.11 246.18,54.11 246.57,54.11 246.97,54.11 247.36,54.11 247.75,54.11 248.15,54.1 248.54,54.1 248.94,54.1 249.33,54.1 249.72,54.1 250.12,54.1 250.51,54.11 250.9,54.1 251.3,54.1 251.69,54.1 252.08,54.11 252.48,54.11 252.87,54.1 253.27,54.11 253.66,54.11 254.05,54.11 254.45,54.1 254.84,54.09 255.23,54.09 255.63,54.09 256.02,54.09 256.42,54.09 256.81,54.09 257.2,54.09 257.6,54.09 257.99,54.1 258.38,54.1 258.78,54.1 259.17,54.1 259.57,54.09 259.96,54.06 260.35,54.02 260.75,53.99 261.14,53.97 261.53,53.97" stroke-dasharray="none" stroke="rgb(31,120,180)" stroke-width="0.75" opacity="1" stroke-opacity="1" fill="none"/>
          </g>
          <g id="Fig:densplot_01.xyplot.lines.group.6.panel.1.1.1">
            <polyline id="Fig:densplot_01.xyplot.lines.group.6.panel.1.1.1.1" points="60.03,53.98 60.43,54.07 60.82,54.7 61.22,57.72 61.61,67.68 62.01,90.29 62.4,125.2 62.8,160.96 63.19,183.57 63.59,188.89 63.98,181.73 64.38,168.33 64.77,153.31 65.17,139.85 65.56,129.34 65.96,121.7 66.35,116.21 66.75,112.02 67.14,108.49 67.54,105.4 67.93,102.74 68.33,100.4 68.72,98.09 69.12,95.67 69.51,93.26 69.91,91.04 70.3,89.08 70.69,87.33 71.09,85.71 71.48,84.2 71.88,82.85 72.27,81.66 72.67,80.51 73.06,79.28 73.46,77.97 73.85,76.69 74.25,75.51 74.64,74.47 75.04,73.55 75.43,72.71 75.83,71.95 76.22,71.24 76.62,70.53 77.01,69.81 77.41,69.1 77.8,68.45 78.2,67.86 78.59,67.32 78.99,66.82 79.38,66.36 79.78,65.94 80.17,65.57 80.57,65.24 80.96,64.89 81.36,64.51 81.75,64.13 82.15,63.76 82.54,63.4 82.93,63.06 83.33,62.76 83.72,62.49 84.12,62.22 84.51,61.96 84.91,61.71 85.3,61.48 85.7,61.26 86.09,61.04 86.49,60.83 86.88,60.65 87.28,60.48 87.67,60.31 88.07,60.12 88.46,59.93 88.86,59.77 89.25,59.64 89.65,59.5 90.04,59.36 90.44,59.21 90.83,59.09 91.23,59 91.62,58.9 92.02,58.76 92.41,58.61 92.81,58.47 93.2,58.38 93.6,58.29 93.99,58.2 94.38,58.11 94.78,58.02 95.17,57.95 95.57,57.87 95.96,57.81 96.36,57.75 96.75,57.7 97.15,57.62 97.54,57.53 97.94,57.44 98.33,57.37 98.73,57.31 99.12,57.24 99.52,57.17 99.91,57.09 100.31,57.01 100.7,56.96 101.1,56.93 101.49,56.91 101.89,56.88 102.28,56.83 102.68,56.76 103.07,56.7 103.47,56.64 103.86,56.59 104.26,56.55 104.65,56.51 105.05,56.47 105.44,56.44 105.83,56.41 106.23,56.39 106.62,56.34 107.02,56.27 107.41,56.21 107.81,56.16 108.2,56.12 108.6,56.1 108.99,56.08 109.39,56.07 109.78,56.06 110.18,56.04 110.57,56 110.97,55.95 111.36,55.91 111.76,55.87 112.15,55.86 112.55,55.85 112.94,55.84 113.34,55.82 113.73,55.8 114.13,55.77 114.52,55.75 114.92,55.73 115.31,55.72 115.71,55.7 116.1,55.67 116.5,55.64 116.89,55.62 117.28,55.6 117.68,55.59 118.07,55.57 118.47,55.55 118.86,55.53 119.26,55.5 119.65,55.48 120.05,55.46 120.44,55.43 120.84,55.41 121.23,55.38 121.63,55.34 122.02,55.31 122.42,55.29 122.81,55.28 123.21,55.27 123.6,55.26 124,55.26 124.39,55.26 124.79,55.26 125.18,55.25 125.58,55.25 125.97,55.24 126.37,55.21 126.76,55.18 127.16,55.17 127.55,55.17 127.95,55.17 128.34,55.16 128.74,55.14 129.13,55.12 129.52,55.1 129.92,55.1 130.31,55.09 130.71,55.08 131.1,55.07 131.5,55.06 131.89,55.05 132.29,55.03 132.68,55.02 133.08,55 133.47,55 133.87,55 134.26,55 134.66,55 135.05,54.99 135.45,54.97 135.84,54.95 136.24,54.94 136.63,54.93 137.03,54.91 137.42,54.89 137.82,54.88 138.21,54.87 138.61,54.86 139,54.85 139.4,54.85 139.79,54.85 140.19,54.85 140.58,54.85 140.97,54.84 141.37,54.81 141.76,54.79 142.16,54.79 142.55,54.8 142.95,54.8 143.34,54.8 143.74,54.79 144.13,54.77 144.53,54.75 144.92,54.73 145.32,54.72 145.71,54.73 146.11,54.73 146.5,54.73 146.9,54.75 147.29,54.76 147.69,54.76 148.08,54.75 148.48,54.74 148.87,54.73 149.27,54.72 149.66,54.71 150.06,54.69 150.45,54.67 150.85,54.65 151.24,54.65 151.64,54.65 152.03,54.64 152.42,54.65 152.82,54.65 153.21,54.65 153.61,54.65 154,54.64 154.4,54.63 154.79,54.62 155.19,54.61 155.58,54.6 155.98,54.59 156.37,54.59 156.77,54.59 157.16,54.59 157.56,54.59 157.95,54.58 158.35,54.58 158.74,54.57 159.14,54.57 159.53,54.56 159.93,54.56 160.32,54.56 160.72,54.56 161.11,54.56 161.51,54.55 161.9,54.55 162.3,54.54 162.69,54.54 163.09,54.53 163.48,54.51 163.88,54.5 164.27,54.49 164.66,54.49 165.06,54.48 165.45,54.49 165.85,54.49 166.24,54.5 166.64,54.5 167.03,54.5 167.43,54.49 167.82,54.47 168.22,54.47 168.61,54.46 169.01,54.46 169.4,54.46 169.8,54.46 170.19,54.45 170.59,54.45 170.98,54.44 171.38,54.44 171.77,54.43 172.17,54.42 172.56,54.42 172.96,54.43 173.35,54.44 173.75,54.44 174.14,54.43 174.54,54.42 174.93,54.41 175.33,54.41 175.72,54.4 176.11,54.4 176.51,54.4 176.9,54.4 177.3,54.39 177.69,54.39 178.09,54.38 178.48,54.37 178.88,54.36 179.27,54.35 179.67,54.35 180.06,54.37 180.46,54.38 180.85,54.39 181.25,54.39 181.64,54.38 182.04,54.37 182.43,54.36 182.83,54.36 183.22,54.36 183.62,54.35 184.01,54.34 184.41,54.33 184.8,54.32 185.2,54.31 185.59,54.31 185.99,54.32 186.38,54.32 186.78,54.33 187.17,54.34 187.56,54.35 187.96,54.34 188.35,54.33 188.75,54.32 189.14,54.31 189.54,54.31 189.93,54.31 190.33,54.31 190.72,54.31 191.12,54.31 191.51,54.31 191.91,54.3 192.3,54.31 192.7,54.31 193.09,54.31 193.49,54.31 193.88,54.3 194.28,54.3 194.67,54.3 195.07,54.31 195.46,54.31 195.86,54.3 196.25,54.3 196.65,54.3 197.04,54.29 197.44,54.28 197.83,54.28 198.23,54.28 198.62,54.27 199.01,54.27 199.41,54.27 199.8,54.26 200.2,54.26 200.59,54.25 200.99,54.25 201.38,54.25 201.78,54.25 202.17,54.25 202.57,54.25 202.96,54.25 203.36,54.24 203.75,54.24 204.15,54.25 204.54,54.25 204.94,54.26 205.33,54.25 205.73,54.25 206.12,54.26 206.52,54.26 206.91,54.26 207.31,54.25 207.7,54.25 208.1,54.25 208.49,54.25 208.89,54.25 209.28,54.25 209.68,54.24 210.07,54.24 210.47,54.23 210.86,54.23 211.25,54.23 211.65,54.22 212.04,54.22 212.44,54.22 212.83,54.22 213.23,54.22 213.62,54.22 214.02,54.23 214.41,54.23 214.81,54.22 215.2,54.21 215.6,54.21 215.99,54.21 216.39,54.21 216.78,54.21 217.18,54.21 217.57,54.21 217.97,54.21 218.36,54.22 218.76,54.22 219.15,54.22 219.55,54.21 219.94,54.21 220.34,54.2 220.73,54.19 221.13,54.19 221.52,54.18 221.92,54.18 222.31,54.19 222.7,54.19 223.1,54.2 223.49,54.2 223.89,54.2 224.28,54.2 224.68,54.2 225.07,54.19 225.47,54.18 225.86,54.18 226.26,54.19 226.65,54.19 227.05,54.19 227.44,54.18 227.84,54.18 228.23,54.17 228.63,54.17 229.02,54.17 229.42,54.18 229.81,54.18 230.21,54.18 230.6,54.17 231,54.17 231.39,54.16 231.79,54.17 232.18,54.17 232.58,54.18 232.97,54.17 233.37,54.17 233.76,54.16 234.15,54.15 234.55,54.14 234.94,54.14 235.34,54.15 235.73,54.16 236.13,54.16 236.52,54.16 236.92,54.15 237.31,54.15 237.71,54.16 238.1,54.16 238.5,54.15 238.89,54.15 239.29,54.15 239.68,54.15 240.08,54.15 240.47,54.15 240.87,54.14 241.26,54.14 241.66,54.14 242.05,54.14 242.45,54.15 242.84,54.15 243.24,54.15 243.63,54.15 244.03,54.15 244.42,54.15 244.82,54.14 245.21,54.14 245.61,54.14 246,54.13 246.39,54.12 246.79,54.13 247.18,54.13 247.58,54.13 247.97,54.14 248.37,54.14 248.76,54.14 249.16,54.13 249.55,54.13 249.95,54.13 250.34,54.13 250.74,54.14 251.13,54.13 251.53,54.13 251.92,54.13 252.32,54.12 252.71,54.12 253.11,54.12 253.5,54.12 253.9,54.12 254.29,54.13 254.69,54.13 255.08,54.13 255.48,54.13 255.87,54.13 256.27,54.12 256.66,54.12 257.06,54.12 257.45,54.12 257.84,54.11 258.24,54.11 258.63,54.11 259.03,54.11 259.42,54.1 259.82,54.08 260.21,54.04 260.61,54 261,53.98 261.4,53.97 261.79,53.97" stroke-dasharray="none" stroke="rgb(31,120,180)" stroke-width="0.75" opacity="1" stroke-opacity="1" fill="none"/>
          </g>
          <g id="Fig:densplot_01.xyplot.lines.group.7.panel.1.1.1">
            <polyline id="Fig:densplot_01.xyplot.lines.group.7.panel.1.1.1.1" points="60.31,53.97 60.71,54 61.1,54.36 61.49,56.7 61.89,66.35 62.28,91.73 62.68,134.63 63.07,180.76 63.46,209.32 63.86,212.02 64.25,196.46 64.65,174.83 65.04,155.1 65.43,139.87 65.83,128.94 66.22,121.26 66.62,115.7 67.01,111.32 67.4,107.63 67.8,104.45 68.19,101.64 68.59,98.98 68.98,96.31 69.38,93.7 69.77,91.25 70.16,89.03 70.56,87.06 70.95,85.29 71.35,83.71 71.74,82.34 72.13,81.13 72.53,79.99 72.92,78.75 73.32,77.35 73.71,75.93 74.1,74.65 74.5,73.56 74.89,72.59 75.29,71.7 75.68,70.88 76.07,70.15 76.47,69.51 76.86,68.9 77.26,68.24 77.65,67.56 78.04,66.99 78.44,66.54 78.83,66.12 79.23,65.65 79.62,65.17 80.01,64.73 80.41,64.34 80.8,63.96 81.2,63.61 81.59,63.28 81.98,62.96 82.38,62.65 82.77,62.35 83.17,62.07 83.56,61.82 83.95,61.59 84.35,61.38 84.74,61.17 85.14,60.97 85.53,60.76 85.92,60.55 86.32,60.34 86.71,60.13 87.11,59.95 87.5,59.78 87.89,59.64 88.29,59.5 88.68,59.37 89.08,59.26 89.47,59.15 89.87,59.04 90.26,58.92 90.65,58.8 91.05,58.68 91.44,58.55 91.84,58.41 92.23,58.27 92.62,58.15 93.02,58.05 93.41,57.96 93.81,57.87 94.2,57.79 94.59,57.72 94.99,57.66 95.38,57.59 95.78,57.51 96.17,57.43 96.56,57.36 96.96,57.31 97.35,57.27 97.75,57.23 98.14,57.19 98.53,57.13 98.93,57.08 99.32,57.03 99.72,56.96 100.11,56.88 100.5,56.83 100.9,56.8 101.29,56.75 101.69,56.69 102.08,56.63 102.47,56.59 102.87,56.55 103.26,56.5 103.66,56.46 104.05,56.44 104.44,56.41 104.84,56.37 105.23,56.33 105.63,56.29 106.02,56.23 106.41,56.18 106.81,56.13 107.2,56.09 107.6,56.07 107.99,56.06 108.38,56.04 108.78,55.99 109.17,55.94 109.57,55.91 109.96,55.89 110.36,55.87 110.75,55.86 111.14,55.85 111.54,55.83 111.93,55.8 112.33,55.77 112.72,55.74 113.11,55.71 113.51,55.69 113.9,55.66 114.3,55.63 114.69,55.61 115.08,55.6 115.48,55.59 115.87,55.57 116.27,55.54 116.66,55.52 117.05,55.5 117.45,55.48 117.84,55.47 118.24,55.46 118.63,55.44 119.02,55.43 119.42,55.42 119.81,55.4 120.21,55.38 120.6,55.35 120.99,55.31 121.39,55.3 121.78,55.3 122.18,55.3 122.57,55.29 122.96,55.28 123.36,55.25 123.75,55.22 124.15,55.2 124.54,55.2 124.93,55.2 125.33,55.2 125.72,55.18 126.12,55.17 126.51,55.17 126.9,55.15 127.3,55.13 127.69,55.09 128.09,55.08 128.48,55.08 128.88,55.07 129.27,55.05 129.66,55.03 130.06,55.03 130.45,55.03 130.85,55.04 131.24,55.04 131.63,55.03 132.03,55.03 132.42,55.02 132.82,55.01 133.21,54.99 133.6,54.97 134,54.95 134.39,54.95 134.79,54.93 135.18,54.93 135.57,54.92 135.97,54.91 136.36,54.9 136.76,54.88 137.15,54.88 137.54,54.88 137.94,54.86 138.33,54.84 138.73,54.83 139.12,54.82 139.51,54.8 139.91,54.79 140.3,54.79 140.7,54.79 141.09,54.79 141.48,54.79 141.88,54.79 142.27,54.8 142.67,54.8 143.06,54.8 143.45,54.79 143.85,54.77 144.24,54.74 144.64,54.73 145.03,54.71 145.42,54.69 145.82,54.68 146.21,54.67 146.61,54.67 147,54.67 147.39,54.68 147.79,54.68 148.18,54.68 148.58,54.69 148.97,54.69 149.37,54.69 149.76,54.68 150.15,54.67 150.55,54.65 150.94,54.64 151.34,54.64 151.73,54.64 152.12,54.63 152.52,54.62 152.91,54.63 153.31,54.62 153.7,54.62 154.09,54.6 154.49,54.59 154.88,54.58 155.28,54.58 155.67,54.58 156.06,54.58 156.46,54.59 156.85,54.59 157.25,54.58 157.64,54.58 158.03,54.58 158.43,54.57 158.82,54.56 159.22,54.55 159.61,54.54 160,54.55 160.4,54.56 160.79,54.57 161.19,54.55 161.58,54.53 161.97,54.52 162.37,54.51 162.76,54.5 163.16,54.51 163.55,54.51 163.94,54.5 164.34,54.49 164.73,54.49 165.13,54.49 165.52,54.49 165.91,54.49 166.31,54.49 166.7,54.48 167.1,54.47 167.49,54.47 167.88,54.46 168.28,54.46 168.67,54.46 169.07,54.46 169.46,54.45 169.86,54.45 170.25,54.44 170.64,54.43 171.04,54.43 171.43,54.43 171.83,54.44 172.22,54.45 172.61,54.45 173.01,54.45 173.4,54.44 173.8,54.44 174.19,54.43 174.58,54.41 174.98,54.39 175.37,54.37 175.77,54.37 176.16,54.38 176.55,54.39 176.95,54.39 177.34,54.39 177.74,54.4 178.13,54.4 178.52,54.4 178.92,54.4 179.31,54.39 179.71,54.38 180.1,54.36 180.49,54.36 180.89,54.36 181.28,54.37 181.68,54.37 182.07,54.37 182.46,54.37 182.86,54.37 183.25,54.37 183.65,54.36 184.04,54.36 184.43,54.35 184.83,54.36 185.22,54.36 185.62,54.35 186.01,54.34 186.4,54.33 186.8,54.32 187.19,54.33 187.59,54.33 187.98,54.33 188.38,54.33 188.77,54.33 189.16,54.33 189.56,54.33 189.95,54.32 190.35,54.32 190.74,54.31 191.13,54.31 191.53,54.3 191.92,54.3 192.32,54.3 192.71,54.3 193.1,54.29 193.5,54.29 193.89,54.29 194.29,54.29 194.68,54.3 195.07,54.3 195.47,54.3 195.86,54.29 196.26,54.29 196.65,54.28 197.04,54.29 197.44,54.29 197.83,54.29 198.23,54.28 198.62,54.28 199.01,54.27 199.41,54.28 199.8,54.28 200.2,54.28 200.59,54.28 200.98,54.28 201.38,54.27 201.77,54.26 202.17,54.26 202.56,54.27 202.95,54.28 203.35,54.28 203.74,54.28 204.14,54.28 204.53,54.26 204.92,54.25 205.32,54.24 205.71,54.25 206.11,54.26 206.5,54.26 206.89,54.27 207.29,54.27 207.68,54.28 208.08,54.28 208.47,54.29 208.87,54.29 209.26,54.28 209.65,54.27 210.05,54.26 210.44,54.26 210.84,54.25 211.23,54.23 211.62,54.22 212.02,54.22 212.41,54.22 212.81,54.22 213.2,54.22 213.59,54.23 213.99,54.24 214.38,54.24 214.78,54.23 215.17,54.22 215.56,54.22 215.96,54.22 216.35,54.23 216.75,54.22 217.14,54.21 217.53,54.21 217.93,54.2 218.32,54.2 218.72,54.2 219.11,54.21 219.5,54.22 219.9,54.22 220.29,54.22 220.69,54.2 221.08,54.19 221.47,54.19 221.87,54.2 222.26,54.21 222.66,54.22 223.05,54.22 223.44,54.22 223.84,54.22 224.23,54.22 224.63,54.21 225.02,54.21 225.41,54.19 225.81,54.18 226.2,54.18 226.6,54.19 226.99,54.2 227.38,54.2 227.78,54.2 228.17,54.19 228.57,54.18 228.96,54.17 229.36,54.17 229.75,54.18 230.14,54.17 230.54,54.17 230.93,54.17 231.33,54.16 231.72,54.16 232.11,54.17 232.51,54.17 232.9,54.18 233.3,54.18 233.69,54.18 234.08,54.18 234.48,54.18 234.87,54.18 235.27,54.17 235.66,54.17 236.05,54.17 236.45,54.17 236.84,54.17 237.24,54.17 237.63,54.16 238.02,54.16 238.42,54.16 238.81,54.16 239.21,54.16 239.6,54.16 239.99,54.16 240.39,54.16 240.78,54.15 241.18,54.15 241.57,54.15 241.96,54.15 242.36,54.15 242.75,54.14 243.15,54.14 243.54,54.15 243.93,54.15 244.33,54.15 244.72,54.15 245.12,54.15 245.51,54.15 245.9,54.15 246.3,54.15 246.69,54.15 247.09,54.15 247.48,54.14 247.87,54.13 248.27,54.13 248.66,54.14 249.06,54.14 249.45,54.14 249.85,54.14 250.24,54.14 250.63,54.14 251.03,54.13 251.42,54.13 251.82,54.13 252.21,54.13 252.6,54.13 253,54.14 253.39,54.14 253.79,54.14 254.18,54.13 254.57,54.13 254.97,54.13 255.36,54.14 255.76,54.14 256.15,54.14 256.54,54.14 256.94,54.13 257.33,54.13 257.73,54.13 258.12,54.12 258.51,54.12 258.91,54.12 259.3,54.11 259.7,54.09 260.09,54.05 260.48,54.01 260.88,53.98 261.27,53.97 261.67,53.97" stroke-dasharray="none" stroke="rgb(31,120,180)" stroke-width="0.75" opacity="1" stroke-opacity="1" fill="none"/>
          </g>
          <g id="Fig:densplot_01.xyplot.lines.group.8.panel.1.1.1">
            <polyline id="Fig:densplot_01.xyplot.lines.group.8.panel.1.1.1.1" points="60.38,53.97 60.77,54.06 61.17,54.9 61.56,59.61 61.95,75.96 62.35,111.41 62.74,158.34 63.13,194.64 63.53,207.63 63.92,201.7 64.32,185.94 64.71,167.65 65.1,151.45 65.5,139.13 65.89,130.28 66.28,123.9 66.68,119.11 67.07,115.01 67.46,111.27 67.86,107.93 68.25,104.95 68.64,102 69.04,98.84 69.43,95.69 69.83,92.85 70.22,90.44 70.61,88.42 71.01,86.57 71.4,84.79 71.79,83.14 72.19,81.72 72.58,80.39 72.97,78.92 73.37,77.35 73.76,75.9 74.15,74.64 74.55,73.5 74.94,72.42 75.33,71.45 75.73,70.64 76.12,69.96 76.52,69.3 76.91,68.6 77.3,67.91 77.7,67.27 78.09,66.66 78.48,66.08 78.88,65.57 79.27,65.12 79.66,64.7 80.06,64.28 80.45,63.92 80.84,63.59 81.24,63.25 81.63,62.89 82.03,62.53 82.42,62.19 82.81,61.92 83.21,61.7 83.6,61.45 83.99,61.12 84.39,60.79 84.78,60.52 85.17,60.34 85.57,60.19 85.96,60.03 86.35,59.85 86.75,59.67 87.14,59.5 87.53,59.36 87.93,59.25 88.32,59.14 88.72,58.99 89.11,58.82 89.5,58.66 89.9,58.51 90.29,58.37 90.68,58.26 91.08,58.18 91.47,58.11 91.86,58 92.26,57.88 92.65,57.76 93.04,57.67 93.44,57.61 93.83,57.56 94.23,57.5 94.62,57.45 95.01,57.39 95.41,57.32 95.8,57.24 96.19,57.15 96.59,57.08 96.98,57.02 97.37,56.97 97.77,56.91 98.16,56.84 98.55,56.78 98.95,56.72 99.34,56.66 99.73,56.58 100.13,56.52 100.52,56.48 100.92,56.43 101.31,56.38 101.7,56.34 102.1,56.32 102.49,56.29 102.88,56.24 103.28,56.18 103.67,56.14 104.06,56.1 104.46,56.06 104.85,56.03 105.24,55.99 105.64,55.96 106.03,55.95 106.42,55.95 106.82,55.92 107.21,55.86 107.61,55.8 108,55.75 108.39,55.73 108.79,55.72 109.18,55.69 109.57,55.64 109.97,55.61 110.36,55.6 110.75,55.62 111.15,55.61 111.54,55.57 111.93,55.54 112.33,55.51 112.72,55.49 113.12,55.46 113.51,55.44 113.9,55.42 114.3,55.41 114.69,55.41 115.08,55.4 115.48,55.39 115.87,55.38 116.26,55.35 116.66,55.31 117.05,55.29 117.44,55.29 117.84,55.3 118.23,55.29 118.62,55.26 119.02,55.22 119.41,55.2 119.81,55.18 120.2,55.17 120.59,55.16 120.99,55.15 121.38,55.14 121.77,55.13 122.17,55.11 122.56,55.08 122.95,55.07 123.35,55.07 123.74,55.08 124.13,55.08 124.53,55.06 124.92,55.03 125.32,55.01 125.71,54.99 126.1,54.98 126.5,54.96 126.89,54.95 127.28,54.94 127.68,54.94 128.07,54.94 128.46,54.94 128.86,54.92 129.25,54.9 129.64,54.87 130.04,54.85 130.43,54.84 130.82,54.84 131.22,54.84 131.61,54.83 132.01,54.82 132.4,54.79 132.79,54.79 133.19,54.8 133.58,54.8 133.97,54.8 134.37,54.79 134.76,54.78 135.15,54.77 135.55,54.75 135.94,54.73 136.33,54.73 136.73,54.73 137.12,54.74 137.52,54.73 137.91,54.71 138.3,54.69 138.7,54.68 139.09,54.69 139.48,54.7 139.88,54.7 140.27,54.68 140.66,54.67 141.06,54.65 141.45,54.64 141.84,54.63 142.24,54.64 142.63,54.65 143.02,54.65 143.42,54.64 143.81,54.63 144.21,54.62 144.6,54.61 144.99,54.61 145.39,54.61 145.78,54.6 146.17,54.59 146.57,54.57 146.96,54.55 147.35,54.54 147.75,54.55 148.14,54.57 148.53,54.57 148.93,54.55 149.32,54.54 149.72,54.53 150.11,54.52 150.5,54.52 150.9,54.51 151.29,54.5 151.68,54.48 152.08,54.48 152.47,54.48 152.86,54.49 153.26,54.49 153.65,54.5 154.04,54.5 154.44,54.5 154.83,54.48 155.22,54.46 155.62,54.45 156.01,54.45 156.41,54.46 156.8,54.47 157.19,54.47 157.59,54.47 157.98,54.46 158.37,54.45 158.77,54.45 159.16,54.45 159.55,54.44 159.95,54.43 160.34,54.42 160.73,54.41 161.13,54.42 161.52,54.43 161.92,54.44 162.31,54.43 162.7,54.42 163.1,54.41 163.49,54.4 163.88,54.38 164.28,54.38 164.67,54.41 165.06,54.42 165.46,54.41 165.85,54.39 166.24,54.39 166.64,54.4 167.03,54.41 167.42,54.4 167.82,54.39 168.21,54.39 168.61,54.39 169,54.39 169.39,54.38 169.79,54.38 170.18,54.37 170.57,54.36 170.97,54.35 171.36,54.35 171.75,54.34 172.15,54.34 172.54,54.34 172.93,54.34 173.33,54.33 173.72,54.33 174.12,54.32 174.51,54.32 174.9,54.32 175.3,54.33 175.69,54.33 176.08,54.32 176.48,54.31 176.87,54.3 177.26,54.3 177.66,54.31 178.05,54.32 178.44,54.32 178.84,54.31 179.23,54.3 179.62,54.29 180.02,54.29 180.41,54.3 180.81,54.3 181.2,54.3 181.59,54.3 181.99,54.29 182.38,54.29 182.77,54.29 183.17,54.28 183.56,54.27 183.95,54.26 184.35,54.27 184.74,54.27 185.13,54.26 185.53,54.26 185.92,54.26 186.31,54.26 186.71,54.26 187.1,54.27 187.5,54.28 187.89,54.29 188.28,54.29 188.68,54.27 189.07,54.26 189.46,54.24 189.86,54.24 190.25,54.24 190.64,54.24 191.04,54.24 191.43,54.24 191.82,54.24 192.22,54.24 192.61,54.24 193.01,54.24 193.4,54.25 193.79,54.24 194.19,54.23 194.58,54.23 194.97,54.22 195.37,54.22 195.76,54.22 196.15,54.22 196.55,54.23 196.94,54.23 197.33,54.23 197.73,54.23 198.12,54.23 198.51,54.22 198.91,54.22 199.3,54.22 199.7,54.22 200.09,54.22 200.48,54.22 200.88,54.21 201.27,54.21 201.66,54.2 202.06,54.19 202.45,54.19 202.84,54.19 203.24,54.19 203.63,54.19 204.02,54.19 204.42,54.19 204.81,54.19 205.21,54.2 205.6,54.21 205.99,54.2 206.39,54.2 206.78,54.2 207.17,54.19 207.57,54.18 207.96,54.19 208.35,54.19 208.75,54.19 209.14,54.18 209.53,54.18 209.93,54.18 210.32,54.18 210.71,54.18 211.11,54.18 211.5,54.18 211.9,54.18 212.29,54.18 212.68,54.17 213.08,54.17 213.47,54.17 213.86,54.17 214.26,54.18 214.65,54.17 215.04,54.17 215.44,54.17 215.83,54.17 216.22,54.16 216.62,54.15 217.01,54.15 217.41,54.15 217.8,54.16 218.19,54.15 218.59,54.15 218.98,54.15 219.37,54.15 219.77,54.15 220.16,54.15 220.55,54.15 220.95,54.16 221.34,54.16 221.73,54.16 222.13,54.15 222.52,54.15 222.91,54.15 223.31,54.15 223.7,54.15 224.1,54.15 224.49,54.14 224.88,54.13 225.28,54.13 225.67,54.13 226.06,54.13 226.46,54.13 226.85,54.13 227.24,54.13 227.64,54.13 228.03,54.14 228.42,54.14 228.82,54.14 229.21,54.13 229.61,54.13 230,54.12 230.39,54.12 230.79,54.12 231.18,54.12 231.57,54.13 231.97,54.14 232.36,54.15 232.75,54.14 233.15,54.14 233.54,54.13 233.93,54.13 234.33,54.12 234.72,54.12 235.11,54.12 235.51,54.12 235.9,54.12 236.3,54.12 236.69,54.12 237.08,54.12 237.48,54.12 237.87,54.11 238.26,54.1 238.66,54.1 239.05,54.1 239.44,54.11 239.84,54.12 240.23,54.12 240.62,54.12 241.02,54.12 241.41,54.12 241.81,54.11 242.2,54.11 242.59,54.12 242.99,54.11 243.38,54.11 243.77,54.11 244.17,54.11 244.56,54.11 244.95,54.11 245.35,54.11 245.74,54.11 246.13,54.12 246.53,54.12 246.92,54.12 247.31,54.11 247.71,54.1 248.1,54.1 248.5,54.1 248.89,54.1 249.28,54.11 249.68,54.11 250.07,54.11 250.46,54.1 250.86,54.09 251.25,54.08 251.64,54.08 252.04,54.08 252.43,54.09 252.82,54.1 253.22,54.1 253.61,54.1 254.01,54.09 254.4,54.09 254.79,54.08 255.19,54.08 255.58,54.08 255.97,54.09 256.37,54.09 256.76,54.09 257.15,54.09 257.55,54.09 257.94,54.09 258.33,54.09 258.73,54.09 259.12,54.09 259.51,54.08 259.91,54.06 260.3,54.02 260.7,53.99 261.09,53.97 261.48,53.97" stroke-dasharray="none" stroke="rgb(31,120,180)" stroke-width="0.75" opacity="1" stroke-opacity="1" fill="none"/>
          </g>
          <g id="Fig:densplot_01.xyplot.lines.group.9.panel.1.1.1">
            <polyline id="Fig:densplot_01.xyplot.lines.group.9.panel.1.1.1.1" points="60.19,53.97 60.59,54.1 60.98,55.16 61.38,60.65 61.77,77.98 62.17,111.94 62.56,154.01 62.95,186.18 63.35,198.2 63.74,193.38 64.14,179.84 64.53,163.76 64.92,148.87 65.32,136.96 65.71,128.19 66.11,121.81 66.5,116.88 66.9,112.67 67.29,108.91 67.68,105.66 68.08,102.9 68.47,100.33 68.87,97.7 69.26,95.07 69.65,92.65 70.05,90.45 70.44,88.41 70.84,86.52 71.23,84.8 71.63,83.28 72.02,81.99 72.41,80.82 72.81,79.52 73.2,78.03 73.6,76.59 73.99,75.33 74.38,74.23 74.78,73.21 75.17,72.29 75.57,71.45 75.96,70.69 76.36,69.99 76.75,69.34 77.14,68.72 77.54,68.14 77.93,67.57 78.33,66.97 78.72,66.35 79.11,65.79 79.51,65.31 79.9,64.88 80.3,64.48 80.69,64.12 81.08,63.82 81.48,63.56 81.87,63.26 82.27,62.9 82.66,62.56 83.06,62.27 83.45,62 83.84,61.72 84.24,61.44 84.63,61.19 85.03,60.98 85.42,60.78 85.81,60.56 86.21,60.32 86.6,60.11 87,59.97 87.39,59.85 87.79,59.7 88.18,59.51 88.57,59.31 88.97,59.16 89.36,59.07 89.76,59 90.15,58.89 90.54,58.75 90.94,58.59 91.33,58.45 91.73,58.34 92.12,58.26 92.52,58.17 92.91,58.07 93.3,58 93.7,57.92 94.09,57.82 94.49,57.71 94.88,57.6 95.27,57.51 95.67,57.45 96.06,57.4 96.46,57.35 96.85,57.27 97.25,57.19 97.64,57.14 98.03,57.11 98.43,57.07 98.82,57.02 99.22,56.95 99.61,56.87 100,56.8 100.4,56.73 100.79,56.68 101.19,56.62 101.58,56.58 101.98,56.56 102.37,56.55 102.76,56.52 103.16,56.46 103.55,56.39 103.95,56.31 104.34,56.25 104.73,56.21 105.13,56.19 105.52,56.18 105.92,56.17 106.31,56.13 106.71,56.06 107.1,55.99 107.49,55.93 107.89,55.9 108.28,55.88 108.68,55.86 109.07,55.84 109.46,55.81 109.86,55.78 110.25,55.75 110.65,55.73 111.04,55.71 111.44,55.71 111.83,55.71 112.22,55.7 112.62,55.69 113.01,55.65 113.41,55.6 113.8,55.57 114.19,55.56 114.59,55.56 114.98,55.54 115.38,55.5 115.77,55.46 116.17,55.42 116.56,55.39 116.95,55.4 117.35,55.41 117.74,55.41 118.14,55.38 118.53,55.36 118.92,55.37 119.32,55.35 119.71,55.32 120.11,55.3 120.5,55.29 120.9,55.27 121.29,55.26 121.68,55.24 122.08,55.23 122.47,55.22 122.87,55.2 123.26,55.17 123.65,55.14 124.05,55.11 124.44,55.08 124.84,55.07 125.23,55.07 125.62,55.07 126.02,55.06 126.41,55.04 126.81,55.02 127.2,55.02 127.6,55.03 127.99,55.02 128.38,55.01 128.78,54.99 129.17,54.97 129.57,54.95 129.96,54.93 130.35,54.93 130.75,54.92 131.14,54.92 131.54,54.92 131.93,54.93 132.33,54.92 132.72,54.91 133.11,54.88 133.51,54.86 133.9,54.85 134.3,54.84 134.69,54.84 135.08,54.83 135.48,54.83 135.87,54.83 136.27,54.81 136.66,54.79 137.06,54.76 137.45,54.75 137.84,54.74 138.24,54.74 138.63,54.74 139.03,54.74 139.42,54.73 139.81,54.72 140.21,54.72 140.6,54.72 141,54.73 141.39,54.72 141.79,54.7 142.18,54.69 142.57,54.69 142.97,54.69 143.36,54.68 143.76,54.67 144.15,54.67 144.54,54.67 144.94,54.66 145.33,54.65 145.73,54.64 146.12,54.63 146.52,54.62 146.91,54.62 147.3,54.61 147.7,54.61 148.09,54.61 148.49,54.61 148.88,54.59 149.27,54.58 149.67,54.57 150.06,54.56 150.46,54.55 150.85,54.55 151.25,54.54 151.64,54.54 152.03,54.54 152.43,54.54 152.82,54.54 153.22,54.53 153.61,54.52 154,54.51 154.4,54.5 154.79,54.5 155.19,54.51 155.58,54.51 155.98,54.5 156.37,54.49 156.76,54.5 157.16,54.5 157.55,54.5 157.95,54.5 158.34,54.49 158.73,54.48 159.13,54.47 159.52,54.47 159.92,54.47 160.31,54.47 160.71,54.46 161.1,54.46 161.49,54.46 161.89,54.46 162.28,54.46 162.68,54.47 163.07,54.47 163.46,54.47 163.86,54.46 164.25,54.45 164.65,54.45 165.04,54.43 165.44,54.42 165.83,54.42 166.22,54.42 166.62,54.41 167.01,54.4 167.41,54.39 167.8,54.39 168.19,54.4 168.59,54.41 168.98,54.42 169.38,54.41 169.77,54.4 170.16,54.39 170.56,54.38 170.95,54.37 171.35,54.36 171.74,54.35 172.14,54.36 172.53,54.37 172.92,54.37 173.32,54.37 173.71,54.38 174.11,54.38 174.5,54.37 174.89,54.36 175.29,54.35 175.68,54.34 176.08,54.33 176.47,54.33 176.87,54.33 177.26,54.34 177.65,54.34 178.05,54.33 178.44,54.33 178.84,54.33 179.23,54.33 179.62,54.33 180.02,54.33 180.41,54.32 180.81,54.32 181.2,54.32 181.6,54.32 181.99,54.32 182.38,54.31 182.78,54.3 183.17,54.29 183.57,54.29 183.96,54.29 184.35,54.3 184.75,54.3 185.14,54.29 185.54,54.29 185.93,54.29 186.33,54.27 186.72,54.27 187.11,54.28 187.51,54.29 187.9,54.3 188.3,54.3 188.69,54.28 189.08,54.27 189.48,54.26 189.87,54.26 190.27,54.27 190.66,54.27 191.06,54.27 191.45,54.27 191.84,54.27 192.24,54.27 192.63,54.26 193.03,54.25 193.42,54.24 193.81,54.25 194.21,54.26 194.6,54.26 195,54.26 195.39,54.24 195.79,54.23 196.18,54.23 196.57,54.23 196.97,54.24 197.36,54.24 197.76,54.25 198.15,54.24 198.54,54.23 198.94,54.22 199.33,54.22 199.73,54.21 200.12,54.22 200.52,54.22 200.91,54.23 201.3,54.24 201.7,54.24 202.09,54.24 202.49,54.22 202.88,54.21 203.27,54.21 203.67,54.21 204.06,54.21 204.46,54.2 204.85,54.2 205.25,54.2 205.64,54.21 206.03,54.21 206.43,54.21 206.82,54.21 207.22,54.2 207.61,54.2 208,54.2 208.4,54.2 208.79,54.2 209.19,54.21 209.58,54.22 209.98,54.21 210.37,54.21 210.76,54.2 211.16,54.21 211.55,54.21 211.95,54.21 212.34,54.21 212.73,54.2 213.13,54.2 213.52,54.2 213.92,54.2 214.31,54.19 214.7,54.19 215.1,54.19 215.49,54.18 215.89,54.17 216.28,54.16 216.68,54.16 217.07,54.17 217.46,54.17 217.86,54.17 218.25,54.17 218.65,54.16 219.04,54.16 219.43,54.17 219.83,54.17 220.22,54.17 220.62,54.16 221.01,54.16 221.41,54.16 221.8,54.15 222.19,54.15 222.59,54.15 222.98,54.16 223.38,54.16 223.77,54.17 224.16,54.17 224.56,54.17 224.95,54.16 225.35,54.15 225.74,54.14 226.14,54.14 226.53,54.15 226.92,54.16 227.32,54.15 227.71,54.15 228.11,54.15 228.5,54.16 228.89,54.15 229.29,54.15 229.68,54.14 230.08,54.13 230.47,54.13 230.87,54.13 231.26,54.14 231.65,54.15 232.05,54.15 232.44,54.15 232.84,54.15 233.23,54.15 233.62,54.15 234.02,54.15 234.41,54.14 234.81,54.14 235.2,54.13 235.6,54.12 235.99,54.11 236.38,54.11 236.78,54.12 237.17,54.12 237.57,54.12 237.96,54.13 238.35,54.14 238.75,54.13 239.14,54.13 239.54,54.13 239.93,54.12 240.33,54.12 240.72,54.12 241.11,54.13 241.51,54.13 241.9,54.13 242.3,54.13 242.69,54.12 243.08,54.11 243.48,54.11 243.87,54.11 244.27,54.11 244.66,54.11 245.06,54.11 245.45,54.11 245.84,54.12 246.24,54.13 246.63,54.13 247.03,54.13 247.42,54.13 247.81,54.12 248.21,54.11 248.6,54.1 249,54.1 249.39,54.1 249.79,54.11 250.18,54.11 250.57,54.11 250.97,54.1 251.36,54.1 251.76,54.11 252.15,54.11 252.54,54.12 252.94,54.11 253.33,54.11 253.73,54.11 254.12,54.1 254.52,54.1 254.91,54.1 255.3,54.1 255.7,54.1 256.09,54.1 256.49,54.1 256.88,54.1 257.27,54.1 257.67,54.1 258.06,54.09 258.46,54.09 258.85,54.09 259.24,54.09 259.64,54.08 260.03,54.04 260.43,54.01 260.82,53.98 261.22,53.97 261.61,53.97" stroke-dasharray="none" stroke="rgb(31,120,180)" stroke-width="0.75" opacity="1" stroke-opacity="1" fill="none"/>
          </g>
          <g id="Fig:densplot_01.xyplot.lines.group.10.panel.1.1.1">
            <polyline id="Fig:densplot_01.xyplot.lines.group.10.panel.1.1.1.1" points="59,53.97 59.4,53.97 59.79,53.97 60.19,53.97 60.59,53.98 60.98,54.16 61.38,55.47 61.78,61.65 62.17,80.28 62.57,116.64 62.97,162.86 63.36,199.32 63.76,211.79 64.16,202.22 64.55,182.17 64.95,161.66 65.35,145.06 65.74,132.83 66.14,124.12 66.54,117.88 66.93,113.1 67.33,109.11 67.73,105.69 68.12,102.75 68.52,100.04 68.92,97.3 69.31,94.55 69.71,91.98 70.11,89.7 70.5,87.69 70.9,85.89 71.29,84.25 71.69,82.78 72.09,81.5 72.48,80.32 72.88,79.04 73.28,77.59 73.67,76.15 74.07,74.84 74.47,73.66 74.86,72.62 75.26,71.74 75.66,70.98 76.05,70.27 76.45,69.57 76.85,68.87 77.24,68.19 77.64,67.55 78.04,66.96 78.43,66.45 78.83,65.99 79.23,65.57 79.62,65.18 80.02,64.8 80.42,64.4 80.81,64.02 81.21,63.66 81.61,63.33 82,63.01 82.4,62.72 82.8,62.46 83.19,62.2 83.59,61.94 83.99,61.68 84.38,61.4 84.78,61.13 85.18,60.9 85.57,60.69 85.97,60.5 86.37,60.31 86.76,60.15 87.16,59.99 87.56,59.84 87.95,59.67 88.35,59.5 88.75,59.33 89.14,59.16 89.54,59 89.94,58.85 90.33,58.73 90.73,58.62 91.13,58.52 91.52,58.42 91.92,58.31 92.32,58.2 92.71,58.11 93.11,58.04 93.5,57.97 93.9,57.89 94.3,57.81 94.69,57.72 95.09,57.62 95.49,57.5 95.88,57.4 96.28,57.35 96.68,57.33 97.07,57.31 97.47,57.26 97.87,57.2 98.26,57.15 98.66,57.12 99.06,57.09 99.45,57.01 99.85,56.92 100.25,56.83 100.64,56.76 101.04,56.72 101.44,56.7 101.83,56.66 102.23,56.62 102.63,56.56 103.02,56.51 103.42,56.46 103.82,56.43 104.21,56.41 104.61,56.39 105.01,56.35 105.4,56.31 105.8,56.26 106.2,56.21 106.59,56.16 106.99,56.12 107.39,56.09 107.78,56.08 108.18,56.06 108.58,56.02 108.97,55.98 109.37,55.95 109.77,55.95 110.16,55.94 110.56,55.91 110.96,55.87 111.35,55.81 111.75,55.76 112.15,55.72 112.54,55.71 112.94,55.72 113.34,55.73 113.73,55.72 114.13,55.7 114.53,55.66 114.92,55.63 115.32,55.61 115.72,55.58 116.11,55.56 116.51,55.55 116.9,55.53 117.3,55.49 117.7,55.44 118.09,55.41 118.49,55.41 118.89,55.39 119.28,55.38 119.68,55.38 120.08,55.36 120.47,55.34 120.87,55.33 121.27,55.32 121.66,55.32 122.06,55.33 122.46,55.32 122.85,55.3 123.25,55.27 123.65,55.25 124.04,55.23 124.44,55.21 124.84,55.19 125.23,55.18 125.63,55.17 126.03,55.17 126.42,55.19 126.82,55.2 127.22,55.19 127.61,55.15 128.01,55.1 128.41,55.07 128.8,55.06 129.2,55.06 129.6,55.05 129.99,55.03 130.39,55.02 130.79,55.02 131.18,55.01 131.58,55.01 131.98,55.01 132.37,55.01 132.77,55 133.17,54.99 133.56,54.98 133.96,54.98 134.36,54.97 134.75,54.95 135.15,54.93 135.55,54.92 135.94,54.92 136.34,54.91 136.74,54.88 137.13,54.86 137.53,54.86 137.93,54.85 138.32,54.85 138.72,54.86 139.11,54.86 139.51,54.84 139.91,54.84 140.3,54.83 140.7,54.82 141.1,54.81 141.49,54.8 141.89,54.8 142.29,54.8 142.68,54.8 143.08,54.8 143.48,54.79 143.87,54.77 144.27,54.76 144.67,54.75 145.06,54.74 145.46,54.74 145.86,54.73 146.25,54.72 146.65,54.71 147.05,54.71 147.44,54.69 147.84,54.68 148.24,54.67 148.63,54.67 149.03,54.67 149.43,54.66 149.82,54.64 150.22,54.64 150.62,54.64 151.01,54.63 151.41,54.62 151.81,54.61 152.2,54.6 152.6,54.59 153,54.58 153.39,54.58 153.79,54.59 154.19,54.6 154.58,54.59 154.98,54.58 155.38,54.57 155.77,54.58 156.17,54.59 156.57,54.6 156.96,54.62 157.36,54.63 157.76,54.62 158.15,54.6 158.55,54.58 158.95,54.57 159.34,54.56 159.74,54.55 160.14,54.54 160.53,54.54 160.93,54.54 161.32,54.54 161.72,54.53 162.12,54.53 162.51,54.53 162.91,54.53 163.31,54.52 163.7,54.52 164.1,54.51 164.5,54.51 164.89,54.51 165.29,54.51 165.69,54.5 166.08,54.49 166.48,54.5 166.88,54.51 167.27,54.51 167.67,54.5 168.07,54.48 168.46,54.46 168.86,54.45 169.26,54.45 169.65,54.46 170.05,54.47 170.45,54.48 170.84,54.48 171.24,54.47 171.64,54.45 172.03,54.43 172.43,54.43 172.83,54.42 173.22,54.43 173.62,54.43 174.02,54.43 174.41,54.43 174.81,54.43 175.21,54.43 175.6,54.42 176,54.41 176.4,54.4 176.79,54.39 177.19,54.38 177.59,54.38 177.98,54.39 178.38,54.39 178.78,54.39 179.17,54.39 179.57,54.39 179.97,54.39 180.36,54.39 180.76,54.4 181.16,54.4 181.55,54.39 181.95,54.38 182.35,54.36 182.74,54.35 183.14,54.35 183.53,54.35 183.93,54.35 184.33,54.35 184.72,54.36 185.12,54.36 185.52,54.37 185.91,54.36 186.31,54.35 186.71,54.34 187.1,54.33 187.5,54.32 187.9,54.32 188.29,54.33 188.69,54.34 189.09,54.35 189.48,54.35 189.88,54.35 190.28,54.34 190.67,54.34 191.07,54.33 191.47,54.33 191.86,54.32 192.26,54.31 192.66,54.32 193.05,54.32 193.45,54.32 193.85,54.32 194.24,54.32 194.64,54.32 195.04,54.32 195.43,54.32 195.83,54.32 196.23,54.31 196.62,54.31 197.02,54.31 197.42,54.31 197.81,54.31 198.21,54.31 198.61,54.31 199,54.31 199.4,54.31 199.8,54.3 200.19,54.3 200.59,54.29 200.99,54.29 201.38,54.28 201.78,54.28 202.18,54.28 202.57,54.28 202.97,54.28 203.37,54.28 203.76,54.28 204.16,54.28 204.56,54.28 204.95,54.28 205.35,54.27 205.74,54.27 206.14,54.26 206.54,54.26 206.93,54.26 207.33,54.25 207.73,54.25 208.12,54.26 208.52,54.27 208.92,54.27 209.31,54.27 209.71,54.26 210.11,54.25 210.5,54.24 210.9,54.24 211.3,54.23 211.69,54.23 212.09,54.23 212.49,54.23 212.88,54.23 213.28,54.23 213.68,54.22 214.07,54.22 214.47,54.22 214.87,54.22 215.26,54.22 215.66,54.22 216.06,54.22 216.45,54.22 216.85,54.22 217.25,54.22 217.64,54.22 218.04,54.21 218.44,54.21 218.83,54.21 219.23,54.21 219.63,54.22 220.02,54.22 220.42,54.22 220.82,54.22 221.21,54.21 221.61,54.21 222.01,54.21 222.4,54.2 222.8,54.2 223.2,54.21 223.59,54.21 223.99,54.2 224.39,54.2 224.78,54.21 225.18,54.21 225.58,54.2 225.97,54.2 226.37,54.21 226.77,54.22 227.16,54.23 227.56,54.23 227.96,54.22 228.35,54.21 228.75,54.2 229.14,54.19 229.54,54.18 229.94,54.17 230.33,54.17 230.73,54.18 231.13,54.19 231.52,54.19 231.92,54.18 232.32,54.18 232.71,54.18 233.11,54.18 233.51,54.18 233.9,54.18 234.3,54.18 234.7,54.18 235.09,54.18 235.49,54.17 235.89,54.16 236.28,54.16 236.68,54.17 237.08,54.18 237.47,54.18 237.87,54.18 238.27,54.16 238.66,54.16 239.06,54.16 239.46,54.16 239.85,54.17 240.25,54.17 240.65,54.17 241.04,54.17 241.44,54.17 241.84,54.17 242.23,54.17 242.63,54.17 243.03,54.17 243.42,54.17 243.82,54.17 244.22,54.16 244.61,54.16 245.01,54.16 245.41,54.16 245.8,54.16 246.2,54.16 246.6,54.16 246.99,54.15 247.39,54.15 247.79,54.15 248.18,54.16 248.58,54.16 248.98,54.16 249.37,54.16 249.77,54.16 250.17,54.15 250.56,54.15 250.96,54.15 251.35,54.15 251.75,54.16 252.15,54.15 252.54,54.14 252.94,54.14 253.34,54.13 253.73,54.14 254.13,54.14 254.53,54.14 254.92,54.14 255.32,54.14 255.72,54.14 256.11,54.14 256.51,54.14 256.91,54.13 257.3,54.13 257.7,54.13 258.1,54.13 258.49,54.13 258.89,54.13 259.29,54.11 259.68,54.09 260.08,54.05 260.48,54.01 260.87,53.98 261.27,53.97 261.67,53.97" stroke-dasharray="none" stroke="rgb(31,120,180)" stroke-width="0.75" opacity="1" stroke-opacity="1" fill="none"/>
          </g>
          <g id="Fig:densplot_01.xyplot.lines.group.11.panel.1.1.1">
            <polyline id="Fig:densplot_01.xyplot.lines.group.11.panel.1.1.1.1" points="59.86,53.97 60.26,53.97 60.65,53.98 61.05,54.1 61.44,55.27 61.83,61.86 62.23,84.46 62.62,129.78 63.02,181.58 63.41,212.89 63.81,215.64 64.2,199.73 64.6,178.04 64.99,158.74 65.38,144.65 65.78,135.29 66.17,128.91 66.57,123.9 66.96,119.13 67.36,114.31 67.75,109.99 68.15,106.49 68.54,103.34 68.93,100.07 69.33,96.78 69.72,93.75 70.12,91.13 70.51,88.91 70.91,86.95 71.3,85.17 71.7,83.56 72.09,82.19 72.49,80.92 72.88,79.46 73.27,77.82 73.67,76.31 74.06,74.99 74.46,73.78 74.85,72.69 75.25,71.74 75.64,70.93 76.04,70.15 76.43,69.33 76.82,68.52 77.22,67.84 77.61,67.28 78.01,66.74 78.4,66.19 78.8,65.65 79.19,65.18 79.59,64.77 79.98,64.38 80.37,63.96 80.77,63.52 81.16,63.13 81.56,62.81 81.95,62.52 82.35,62.26 82.74,62.02 83.14,61.75 83.53,61.46 83.93,61.19 84.32,60.91 84.71,60.64 85.11,60.43 85.5,60.23 85.9,59.98 86.29,59.74 86.69,59.59 87.08,59.47 87.48,59.31 87.87,59.13 88.26,58.97 88.66,58.84 89.05,58.73 89.45,58.6 89.84,58.44 90.24,58.31 90.63,58.21 91.03,58.14 91.42,58.05 91.81,57.94 92.21,57.83 92.6,57.74 93,57.64 93.39,57.54 93.79,57.46 94.18,57.39 94.58,57.32 94.97,57.25 95.37,57.2 95.76,57.14 96.15,57.08 96.55,57.03 96.94,56.97 97.34,56.89 97.73,56.82 98.13,56.75 98.52,56.67 98.92,56.58 99.31,56.51 99.7,56.44 100.1,56.4 100.49,56.38 100.89,56.36 101.28,56.33 101.68,56.29 102.07,56.26 102.47,56.23 102.86,56.21 103.26,56.18 103.65,56.16 104.04,56.13 104.44,56.09 104.83,56.05 105.23,56.02 105.62,55.97 106.02,55.91 106.41,55.86 106.81,55.82 107.2,55.81 107.59,55.81 107.99,55.8 108.38,55.76 108.78,55.74 109.17,55.71 109.57,55.66 109.96,55.58 110.36,55.5 110.75,55.48 111.14,55.5 111.54,55.5 111.93,55.49 112.33,55.47 112.72,55.45 113.12,55.44 113.51,55.44 113.91,55.43 114.3,55.4 114.7,55.36 115.09,55.34 115.48,55.32 115.88,55.3 116.27,55.28 116.67,55.26 117.06,55.24 117.46,55.23 117.85,55.2 118.25,55.17 118.64,55.16 119.03,55.16 119.43,55.15 119.82,55.14 120.22,55.12 120.61,55.09 121.01,55.08 121.4,55.09 121.8,55.1 122.19,55.09 122.58,55.07 122.98,55.04 123.37,55.01 123.77,54.98 124.16,54.96 124.56,54.94 124.95,54.94 125.35,54.95 125.74,54.95 126.14,54.94 126.53,54.93 126.92,54.9 127.32,54.89 127.71,54.89 128.11,54.88 128.5,54.88 128.9,54.89 129.29,54.89 129.69,54.88 130.08,54.86 130.47,54.85 130.87,54.83 131.26,54.8 131.66,54.8 132.05,54.8 132.45,54.79 132.84,54.77 133.24,54.75 133.63,54.73 134.02,54.72 134.42,54.73 134.81,54.74 135.21,54.75 135.6,54.76 136,54.74 136.39,54.71 136.79,54.68 137.18,54.66 137.58,54.64 137.97,54.64 138.36,54.65 138.76,54.66 139.15,54.67 139.55,54.67 139.94,54.66 140.34,54.64 140.73,54.62 141.13,54.6 141.52,54.6 141.91,54.6 142.31,54.61 142.7,54.61 143.1,54.6 143.49,54.59 143.89,54.58 144.28,54.57 144.68,54.57 145.07,54.58 145.46,54.59 145.86,54.59 146.25,54.58 146.65,54.58 147.04,54.57 147.44,54.55 147.83,54.53 148.23,54.51 148.62,54.5 149.02,54.51 149.41,54.51 149.8,54.51 150.2,54.51 150.59,54.5 150.99,54.49 151.38,54.47 151.78,54.47 152.17,54.47 152.57,54.48 152.96,54.48 153.35,54.48 153.75,54.47 154.14,54.46 154.54,54.46 154.93,54.46 155.33,54.45 155.72,54.46 156.12,54.46 156.51,54.46 156.91,54.45 157.3,54.44 157.69,54.43 158.09,54.42 158.48,54.42 158.88,54.41 159.27,54.41 159.67,54.4 160.06,54.39 160.46,54.39 160.85,54.39 161.24,54.4 161.64,54.41 162.03,54.41 162.43,54.41 162.82,54.39 163.22,54.39 163.61,54.39 164.01,54.38 164.4,54.37 164.79,54.35 165.19,54.35 165.58,54.36 165.98,54.37 166.37,54.38 166.77,54.38 167.16,54.38 167.56,54.37 167.95,54.35 168.35,54.34 168.74,54.32 169.13,54.32 169.53,54.33 169.92,54.34 170.32,54.34 170.71,54.35 171.11,54.34 171.5,54.33 171.9,54.31 172.29,54.31 172.68,54.32 173.08,54.33 173.47,54.34 173.87,54.33 174.26,54.32 174.66,54.32 175.05,54.31 175.45,54.3 175.84,54.3 176.23,54.3 176.63,54.29 177.02,54.28 177.42,54.28 177.81,54.29 178.21,54.29 178.6,54.29 179,54.29 179.39,54.3 179.79,54.3 180.18,54.29 180.57,54.28 180.97,54.27 181.36,54.26 181.76,54.26 182.15,54.25 182.55,54.24 182.94,54.24 183.34,54.24 183.73,54.24 184.12,54.24 184.52,54.25 184.91,54.26 185.31,54.26 185.7,54.26 186.1,54.25 186.49,54.25 186.89,54.25 187.28,54.25 187.67,54.24 188.07,54.24 188.46,54.24 188.86,54.24 189.25,54.23 189.65,54.23 190.04,54.23 190.44,54.24 190.83,54.23 191.23,54.22 191.62,54.22 192.01,54.23 192.41,54.23 192.8,54.23 193.2,54.23 193.59,54.23 193.99,54.22 194.38,54.21 194.78,54.2 195.17,54.2 195.56,54.2 195.96,54.2 196.35,54.21 196.75,54.22 197.14,54.23 197.54,54.22 197.93,54.2 198.33,54.19 198.72,54.19 199.11,54.19 199.51,54.18 199.9,54.18 200.3,54.18 200.69,54.18 201.09,54.19 201.48,54.19 201.88,54.2 202.27,54.21 202.67,54.21 203.06,54.21 203.45,54.2 203.85,54.19 204.24,54.2 204.64,54.21 205.03,54.2 205.43,54.19 205.82,54.18 206.22,54.18 206.61,54.17 207,54.17 207.4,54.17 207.79,54.17 208.19,54.17 208.58,54.17 208.98,54.18 209.37,54.18 209.77,54.18 210.16,54.18 210.55,54.17 210.95,54.17 211.34,54.17 211.74,54.17 212.13,54.16 212.53,54.15 212.92,54.15 213.32,54.15 213.71,54.16 214.11,54.17 214.5,54.18 214.89,54.19 215.29,54.19 215.68,54.19 216.08,54.18 216.47,54.16 216.87,54.15 217.26,54.14 217.66,54.14 218.05,54.14 218.44,54.14 218.84,54.15 219.23,54.14 219.63,54.14 220.02,54.15 220.42,54.15 220.81,54.15 221.21,54.15 221.6,54.15 222,54.15 222.39,54.14 222.78,54.14 223.18,54.14 223.57,54.13 223.97,54.13 224.36,54.14 224.76,54.15 225.15,54.16 225.55,54.16 225.94,54.14 226.33,54.12 226.73,54.13 227.12,54.13 227.52,54.14 227.91,54.13 228.31,54.12 228.7,54.11 229.1,54.11 229.49,54.11 229.88,54.12 230.28,54.12 230.67,54.12 231.07,54.13 231.46,54.13 231.86,54.13 232.25,54.12 232.65,54.12 233.04,54.11 233.44,54.12 233.83,54.13 234.22,54.13 234.62,54.12 235.01,54.12 235.41,54.11 235.8,54.11 236.2,54.11 236.59,54.11 236.99,54.11 237.38,54.11 237.77,54.11 238.17,54.1 238.56,54.11 238.96,54.11 239.35,54.12 239.75,54.12 240.14,54.11 240.54,54.11 240.93,54.11 241.32,54.1 241.72,54.1 242.11,54.1 242.51,54.11 242.9,54.1 243.3,54.09 243.69,54.09 244.09,54.09 244.48,54.09 244.88,54.1 245.27,54.1 245.66,54.1 246.06,54.1 246.45,54.1 246.85,54.1 247.24,54.1 247.64,54.1 248.03,54.1 248.43,54.1 248.82,54.1 249.21,54.1 249.61,54.11 250,54.11 250.4,54.11 250.79,54.1 251.19,54.1 251.58,54.1 251.98,54.11 252.37,54.11 252.76,54.1 253.16,54.1 253.55,54.09 253.95,54.09 254.34,54.09 254.74,54.09 255.13,54.08 255.53,54.08 255.92,54.08 256.32,54.08 256.71,54.07 257.1,54.07 257.5,54.07 257.89,54.08 258.29,54.08 258.68,54.07 259.08,54.07 259.47,54.07 259.87,54.05 260.26,54.02 260.65,53.99 261.05,53.97 261.44,53.97" stroke-dasharray="none" stroke="rgb(31,120,180)" stroke-width="0.75" opacity="1" stroke-opacity="1" fill="none"/>
          </g>
          <g id="Fig:densplot_01.xyplot.lines.group.12.panel.1.1.1">
            <polyline id="Fig:densplot_01.xyplot.lines.group.12.panel.1.1.1.1" points="60.28,53.97 60.67,54.07 61.07,54.91 61.46,59.36 61.85,74.03 62.25,104.54 62.64,145.29 63.04,179.93 63.43,196.21 63.83,194.34 64.22,181.45 64.61,164.74 65.01,149.04 65.4,136.5 65.8,127.28 66.19,120.66 66.58,115.78 66.98,111.92 67.37,108.59 67.77,105.64 68.16,102.94 68.55,100.27 68.95,97.55 69.34,94.94 69.74,92.65 70.13,90.62 70.52,88.72 70.92,86.9 71.31,85.28 71.71,83.91 72.1,82.7 72.5,81.46 72.89,80.01 73.28,78.45 73.68,77.02 74.07,75.84 74.47,74.84 74.86,73.91 75.25,73.04 75.65,72.22 76.04,71.42 76.44,70.61 76.83,69.79 77.22,69.06 77.62,68.44 78.01,67.86 78.41,67.29 78.8,66.74 79.2,66.21 79.59,65.74 79.98,65.34 80.38,64.98 80.77,64.64 81.17,64.29 81.56,63.93 81.95,63.55 82.35,63.17 82.74,62.86 83.14,62.59 83.53,62.31 83.92,62.02 84.32,61.73 84.71,61.48 85.11,61.26 85.5,61.03 85.9,60.81 86.29,60.61 86.68,60.43 87.08,60.25 87.47,60.07 87.87,59.89 88.26,59.73 88.65,59.57 89.05,59.43 89.44,59.29 89.84,59.15 90.23,59.01 90.62,58.87 91.02,58.75 91.41,58.64 91.81,58.55 92.2,58.45 92.59,58.34 92.99,58.21 93.38,58.1 93.78,58.03 94.17,57.97 94.57,57.87 94.96,57.76 95.35,57.64 95.75,57.54 96.14,57.45 96.54,57.39 96.93,57.34 97.32,57.3 97.72,57.26 98.11,57.21 98.51,57.16 98.9,57.09 99.29,56.99 99.69,56.91 100.08,56.84 100.48,56.79 100.87,56.76 101.27,56.71 101.66,56.66 102.05,56.63 102.45,56.61 102.84,56.59 103.24,56.55 103.63,56.49 104.02,56.42 104.42,56.35 104.81,56.29 105.21,56.25 105.6,56.22 105.99,56.17 106.39,56.12 106.78,56.09 107.18,56.06 107.57,56.05 107.96,56.03 108.36,56 108.75,55.96 109.15,55.92 109.54,55.89 109.94,55.87 110.33,55.84 110.72,55.82 111.12,55.8 111.51,55.79 111.91,55.76 112.3,55.74 112.69,55.71 113.09,55.68 113.48,55.65 113.88,55.63 114.27,55.61 114.66,55.59 115.06,55.57 115.45,55.54 115.85,55.5 116.24,55.47 116.64,55.45 117.03,55.45 117.42,55.44 117.82,55.42 118.21,55.39 118.61,55.36 119,55.34 119.39,55.32 119.79,55.3 120.18,55.28 120.58,55.27 120.97,55.26 121.36,55.25 121.76,55.24 122.15,55.23 122.55,55.23 122.94,55.24 123.33,55.23 123.73,55.23 124.12,55.22 124.52,55.2 124.91,55.16 125.31,55.13 125.7,55.1 126.09,55.09 126.49,55.08 126.88,55.08 127.28,55.07 127.67,55.05 128.06,55.03 128.46,55.02 128.85,55.02 129.25,55.02 129.64,55.01 130.03,54.98 130.43,54.96 130.82,54.95 131.22,54.95 131.61,54.96 132.01,54.95 132.4,54.94 132.79,54.92 133.19,54.89 133.58,54.87 133.98,54.86 134.37,54.86 134.76,54.85 135.16,54.86 135.55,54.85 135.95,54.85 136.34,54.84 136.73,54.82 137.13,54.81 137.52,54.8 137.92,54.81 138.31,54.8 138.7,54.78 139.1,54.76 139.49,54.75 139.89,54.75 140.28,54.75 140.68,54.75 141.07,54.74 141.46,54.74 141.86,54.74 142.25,54.75 142.65,54.74 143.04,54.72 143.43,54.71 143.83,54.7 144.22,54.68 144.62,54.68 145.01,54.68 145.4,54.68 145.8,54.68 146.19,54.66 146.59,54.66 146.98,54.66 147.38,54.65 147.77,54.65 148.16,54.65 148.56,54.64 148.95,54.63 149.35,54.63 149.74,54.63 150.13,54.62 150.53,54.61 150.92,54.6 151.32,54.58 151.71,54.56 152.1,54.56 152.5,54.56 152.89,54.55 153.29,54.54 153.68,54.53 154.08,54.52 154.47,54.51 154.86,54.52 155.26,54.53 155.65,54.54 156.05,54.54 156.44,54.54 156.83,54.53 157.23,54.53 157.62,54.51 158.02,54.5 158.41,54.49 158.8,54.48 159.2,54.48 159.59,54.47 159.99,54.46 160.38,54.45 160.77,54.44 161.17,54.46 161.56,54.47 161.96,54.48 162.35,54.47 162.75,54.47 163.14,54.47 163.53,54.47 163.93,54.47 164.32,54.46 164.72,54.46 165.11,54.45 165.5,54.44 165.9,54.43 166.29,54.41 166.69,54.41 167.08,54.43 167.47,54.43 167.87,54.43 168.26,54.43 168.66,54.42 169.05,54.42 169.45,54.41 169.84,54.4 170.23,54.4 170.63,54.4 171.02,54.39 171.42,54.38 171.81,54.37 172.2,54.37 172.6,54.37 172.99,54.37 173.39,54.37 173.78,54.36 174.17,54.35 174.57,54.34 174.96,54.34 175.36,54.35 175.75,54.35 176.14,54.36 176.54,54.36 176.93,54.36 177.33,54.36 177.72,54.35 178.12,54.34 178.51,54.32 178.9,54.32 179.3,54.32 179.69,54.32 180.09,54.32 180.48,54.32 180.87,54.32 181.27,54.32 181.66,54.32 182.06,54.32 182.45,54.31 182.84,54.31 183.24,54.31 183.63,54.32 184.03,54.32 184.42,54.32 184.82,54.32 185.21,54.31 185.6,54.3 186,54.29 186.39,54.29 186.79,54.28 187.18,54.28 187.57,54.29 187.97,54.3 188.36,54.3 188.76,54.3 189.15,54.3 189.54,54.3 189.94,54.29 190.33,54.28 190.73,54.28 191.12,54.27 191.51,54.28 191.91,54.28 192.3,54.29 192.7,54.29 193.09,54.29 193.49,54.28 193.88,54.26 194.27,54.26 194.67,54.25 195.06,54.25 195.46,54.26 195.85,54.26 196.24,54.26 196.64,54.26 197.03,54.24 197.43,54.23 197.82,54.23 198.21,54.23 198.61,54.24 199,54.25 199.4,54.25 199.79,54.25 200.19,54.25 200.58,54.25 200.97,54.24 201.37,54.24 201.76,54.24 202.16,54.23 202.55,54.23 202.94,54.25 203.34,54.25 203.73,54.25 204.13,54.24 204.52,54.23 204.91,54.23 205.31,54.23 205.7,54.22 206.1,54.22 206.49,54.22 206.88,54.22 207.28,54.22 207.67,54.21 208.07,54.21 208.46,54.22 208.86,54.22 209.25,54.22 209.64,54.23 210.04,54.23 210.43,54.23 210.83,54.22 211.22,54.21 211.61,54.2 212.01,54.2 212.4,54.2 212.8,54.19 213.19,54.2 213.58,54.2 213.98,54.2 214.37,54.21 214.77,54.21 215.16,54.21 215.56,54.2 215.95,54.19 216.34,54.18 216.74,54.18 217.13,54.18 217.53,54.17 217.92,54.17 218.31,54.17 218.71,54.17 219.1,54.17 219.5,54.17 219.89,54.17 220.28,54.17 220.68,54.17 221.07,54.17 221.47,54.18 221.86,54.18 222.26,54.19 222.65,54.2 223.04,54.19 223.44,54.19 223.83,54.17 224.23,54.16 224.62,54.15 225.01,54.16 225.41,54.16 225.8,54.16 226.2,54.16 226.59,54.16 226.98,54.17 227.38,54.17 227.77,54.17 228.17,54.16 228.56,54.15 228.95,54.14 229.35,54.14 229.74,54.14 230.14,54.14 230.53,54.14 230.93,54.14 231.32,54.15 231.71,54.15 232.11,54.14 232.5,54.14 232.9,54.14 233.29,54.14 233.68,54.15 234.08,54.16 234.47,54.17 234.87,54.16 235.26,54.15 235.65,54.14 236.05,54.13 236.44,54.13 236.84,54.13 237.23,54.14 237.63,54.14 238.02,54.14 238.41,54.14 238.81,54.14 239.2,54.14 239.6,54.14 239.99,54.13 240.38,54.13 240.78,54.13 241.17,54.13 241.57,54.13 241.96,54.13 242.35,54.12 242.75,54.12 243.14,54.12 243.54,54.12 243.93,54.13 244.32,54.13 244.72,54.14 245.11,54.14 245.51,54.14 245.9,54.13 246.3,54.13 246.69,54.13 247.08,54.12 247.48,54.12 247.87,54.11 248.27,54.11 248.66,54.11 249.05,54.12 249.45,54.12 249.84,54.11 250.24,54.11 250.63,54.1 251.02,54.11 251.42,54.12 251.81,54.12 252.21,54.13 252.6,54.13 253,54.12 253.39,54.11 253.78,54.11 254.18,54.1 254.57,54.1 254.97,54.1 255.36,54.09 255.75,54.09 256.15,54.1 256.54,54.1 256.94,54.09 257.33,54.09 257.72,54.09 258.12,54.1 258.51,54.1 258.91,54.1 259.3,54.09 259.69,54.07 260.09,54.04 260.48,54.01 260.88,53.98 261.27,53.97 261.67,53.97" stroke-dasharray="none" stroke="rgb(31,120,180)" stroke-width="0.75" opacity="1" stroke-opacity="1" fill="none"/>
          </g>
        </g>
        <g id="Fig:densplot_01.panel.1.1.off.vp.2">
          <g id="Fig:densplot_01.border.panel.1.1.1">
            <rect id="Fig:densplot_01.border.panel.1.1.1.1" x="44.8" y="42.19" width="231.2" height="191.81" transform="" stroke="rgb(0,0,0)" stroke-dasharray="none" stroke-width="0.75" opacity="1" fill="none" stroke-opacity="1" fill-opacity="0"/>
          </g>
        </g>
        <g id="Fig:densplot_01..1"/>
      </g>
    </g>
  </g>
</svg>